<mxfile host="app.diagrams.net" agent="Mozilla/5.0 (Windows NT 10.0; Win64; x64) AppleWebKit/537.36 (KHTML, like Gecko) Chrome/135.0.0.0 Safari/537.36" version="26.2.13">
  <diagram name="Main Page" id="m1FHigemusTPeCDvRuDk">
    <mxGraphModel dx="5712" dy="5518" grid="1" gridSize="10" guides="1" tooltips="1" connect="1" arrows="1" fold="1" page="1" pageScale="1" pageWidth="827" pageHeight="1169" math="0" shadow="0">
      <root>
        <mxCell id="0" />
        <mxCell id="1" parent="0" />
        <mxCell id="p5baxyPhWxI7ZV6xU-EJ-1" value="Nome do responsável" style="ellipse;whiteSpace=wrap;html=1;" vertex="1" parent="1">
          <mxGeometry x="1890" y="600" width="80" height="60" as="geometry" />
        </mxCell>
        <mxCell id="p5baxyPhWxI7ZV6xU-EJ-174" value="" style="edgeStyle=orthogonalEdgeStyle;rounded=0;orthogonalLoop=1;jettySize=auto;html=1;" edge="1" parent="1" source="p5baxyPhWxI7ZV6xU-EJ-2" target="p5baxyPhWxI7ZV6xU-EJ-173">
          <mxGeometry relative="1" as="geometry" />
        </mxCell>
        <mxCell id="p5baxyPhWxI7ZV6xU-EJ-2" value="ONG" style="rounded=0;whiteSpace=wrap;html=1;" vertex="1" parent="1">
          <mxGeometry x="1920" y="130" width="400" height="100" as="geometry" />
        </mxCell>
        <mxCell id="p5baxyPhWxI7ZV6xU-EJ-3" value="Nome" style="ellipse;whiteSpace=wrap;html=1;" vertex="1" parent="1">
          <mxGeometry x="1630" y="290" width="93" height="55" as="geometry" />
        </mxCell>
        <mxCell id="p5baxyPhWxI7ZV6xU-EJ-4" value="CNPJ" style="ellipse;whiteSpace=wrap;html=1;" vertex="1" parent="1">
          <mxGeometry x="1615" y="370" width="95" height="45" as="geometry" />
        </mxCell>
        <mxCell id="p5baxyPhWxI7ZV6xU-EJ-5" value="Endereço" style="ellipse;whiteSpace=wrap;html=1;" vertex="1" parent="1">
          <mxGeometry x="2025" y="605" width="150" height="60" as="geometry" />
        </mxCell>
        <mxCell id="p5baxyPhWxI7ZV6xU-EJ-6" value="CEP" style="ellipse;whiteSpace=wrap;html=1;" vertex="1" parent="1">
          <mxGeometry x="1790" y="860" width="40" height="30" as="geometry" />
        </mxCell>
        <mxCell id="p5baxyPhWxI7ZV6xU-EJ-7" value="Logradouro" style="ellipse;whiteSpace=wrap;html=1;" vertex="1" parent="1">
          <mxGeometry x="1852.5" y="880" width="80" height="50" as="geometry" />
        </mxCell>
        <mxCell id="p5baxyPhWxI7ZV6xU-EJ-8" value="Bairro" style="ellipse;whiteSpace=wrap;html=1;" vertex="1" parent="1">
          <mxGeometry x="2320" y="880" width="90" height="30" as="geometry" />
        </mxCell>
        <mxCell id="p5baxyPhWxI7ZV6xU-EJ-9" value="Complemeneto" style="ellipse;whiteSpace=wrap;html=1;" vertex="1" parent="1">
          <mxGeometry x="2365" y="770" width="100" height="30" as="geometry" />
        </mxCell>
        <mxCell id="p5baxyPhWxI7ZV6xU-EJ-10" value="Cidade" style="ellipse;whiteSpace=wrap;html=1;" vertex="1" parent="1">
          <mxGeometry x="2210" y="920" width="90" height="30" as="geometry" />
        </mxCell>
        <mxCell id="p5baxyPhWxI7ZV6xU-EJ-11" value="UF" style="ellipse;whiteSpace=wrap;html=1;" vertex="1" parent="1">
          <mxGeometry x="1985" y="910" width="40" height="30" as="geometry" />
        </mxCell>
        <mxCell id="p5baxyPhWxI7ZV6xU-EJ-12" value="Número" style="ellipse;whiteSpace=wrap;html=1;" vertex="1" parent="1">
          <mxGeometry x="2075" y="910" width="90" height="50" as="geometry" />
        </mxCell>
        <mxCell id="p5baxyPhWxI7ZV6xU-EJ-13" value="link do site" style="ellipse;whiteSpace=wrap;html=1;" vertex="1" parent="1">
          <mxGeometry x="2230" y="590" width="105" height="60" as="geometry" />
        </mxCell>
        <mxCell id="p5baxyPhWxI7ZV6xU-EJ-14" value="Área de atuação" style="ellipse;whiteSpace=wrap;html=1;" vertex="1" parent="1">
          <mxGeometry x="1775" y="585" width="105" height="70" as="geometry" />
        </mxCell>
        <mxCell id="p5baxyPhWxI7ZV6xU-EJ-15" value="status de aprovação" style="ellipse;whiteSpace=wrap;html=1;" vertex="1" parent="1">
          <mxGeometry x="2430" y="410" width="120" height="75" as="geometry" />
        </mxCell>
        <mxCell id="p5baxyPhWxI7ZV6xU-EJ-16" value="Avaliação" style="ellipse;whiteSpace=wrap;html=1;" vertex="1" parent="1">
          <mxGeometry x="1667.5" y="520" width="105" height="60" as="geometry" />
        </mxCell>
        <mxCell id="p5baxyPhWxI7ZV6xU-EJ-17" value="&lt;font style=&quot;font-size: 14px;&quot;&gt;Código&lt;/font&gt;" style="ellipse;whiteSpace=wrap;html=1;align=center;fontStyle=4;" vertex="1" parent="1">
          <mxGeometry x="1610" y="445" width="100" height="70" as="geometry" />
        </mxCell>
        <mxCell id="p5baxyPhWxI7ZV6xU-EJ-18" value="&lt;div&gt;Email&lt;/div&gt;" style="ellipse;shape=doubleEllipse;margin=3;whiteSpace=wrap;html=1;align=center;" vertex="1" parent="1">
          <mxGeometry x="2485" y="520" width="100" height="40" as="geometry" />
        </mxCell>
        <mxCell id="p5baxyPhWxI7ZV6xU-EJ-19" value="Telefone" style="ellipse;shape=doubleEllipse;margin=3;whiteSpace=wrap;html=1;align=center;" vertex="1" parent="1">
          <mxGeometry x="2405" y="590" width="100" height="40" as="geometry" />
        </mxCell>
        <mxCell id="p5baxyPhWxI7ZV6xU-EJ-20" value="" style="endArrow=none;html=1;rounded=0;exitX=1;exitY=1;exitDx=0;exitDy=0;entryX=0.5;entryY=1;entryDx=0;entryDy=0;" edge="1" parent="1" source="p5baxyPhWxI7ZV6xU-EJ-6" target="p5baxyPhWxI7ZV6xU-EJ-5">
          <mxGeometry relative="1" as="geometry">
            <mxPoint x="2054" y="-220" as="sourcePoint" />
            <mxPoint x="2102" y="-195" as="targetPoint" />
          </mxGeometry>
        </mxCell>
        <mxCell id="p5baxyPhWxI7ZV6xU-EJ-21" value="" style="endArrow=none;html=1;rounded=0;exitX=1;exitY=0;exitDx=0;exitDy=0;entryX=0.5;entryY=1;entryDx=0;entryDy=0;" edge="1" parent="1" source="p5baxyPhWxI7ZV6xU-EJ-7" target="p5baxyPhWxI7ZV6xU-EJ-5">
          <mxGeometry relative="1" as="geometry">
            <mxPoint x="2064" y="-159" as="sourcePoint" />
            <mxPoint x="2112" y="-134" as="targetPoint" />
          </mxGeometry>
        </mxCell>
        <mxCell id="p5baxyPhWxI7ZV6xU-EJ-22" value="" style="endArrow=none;html=1;rounded=0;exitX=0.5;exitY=0;exitDx=0;exitDy=0;" edge="1" parent="1" source="p5baxyPhWxI7ZV6xU-EJ-11">
          <mxGeometry relative="1" as="geometry">
            <mxPoint x="2005" y="940" as="sourcePoint" />
            <mxPoint x="2100" y="660" as="targetPoint" />
          </mxGeometry>
        </mxCell>
        <mxCell id="p5baxyPhWxI7ZV6xU-EJ-23" value="" style="endArrow=none;html=1;rounded=0;exitX=0;exitY=0;exitDx=0;exitDy=0;entryX=0.5;entryY=1;entryDx=0;entryDy=0;" edge="1" parent="1" source="p5baxyPhWxI7ZV6xU-EJ-9" target="p5baxyPhWxI7ZV6xU-EJ-5">
          <mxGeometry relative="1" as="geometry">
            <mxPoint x="2126.2" y="-263.9899999999998" as="sourcePoint" />
            <mxPoint x="2135" y="-170" as="targetPoint" />
          </mxGeometry>
        </mxCell>
        <mxCell id="p5baxyPhWxI7ZV6xU-EJ-24" value="" style="endArrow=none;html=1;rounded=0;exitX=0.5;exitY=0;exitDx=0;exitDy=0;entryX=0.5;entryY=1;entryDx=0;entryDy=0;" edge="1" parent="1" source="p5baxyPhWxI7ZV6xU-EJ-8" target="p5baxyPhWxI7ZV6xU-EJ-5">
          <mxGeometry relative="1" as="geometry">
            <mxPoint x="2175" y="-220" as="sourcePoint" />
            <mxPoint x="2223" y="-195" as="targetPoint" />
          </mxGeometry>
        </mxCell>
        <mxCell id="p5baxyPhWxI7ZV6xU-EJ-25" value="" style="endArrow=none;html=1;rounded=0;entryX=0.5;entryY=0;entryDx=0;entryDy=0;exitX=0.5;exitY=1;exitDx=0;exitDy=0;" edge="1" parent="1" source="p5baxyPhWxI7ZV6xU-EJ-5" target="p5baxyPhWxI7ZV6xU-EJ-10">
          <mxGeometry relative="1" as="geometry">
            <mxPoint x="2100" y="670" as="sourcePoint" />
            <mxPoint x="2254" y="-185" as="targetPoint" />
          </mxGeometry>
        </mxCell>
        <mxCell id="p5baxyPhWxI7ZV6xU-EJ-26" value="" style="endArrow=none;html=1;rounded=0;exitX=0.5;exitY=1;exitDx=0;exitDy=0;" edge="1" parent="1" source="p5baxyPhWxI7ZV6xU-EJ-5" target="p5baxyPhWxI7ZV6xU-EJ-12">
          <mxGeometry relative="1" as="geometry">
            <mxPoint x="2100" y="670" as="sourcePoint" />
            <mxPoint x="2110" y="900" as="targetPoint" />
          </mxGeometry>
        </mxCell>
        <mxCell id="p5baxyPhWxI7ZV6xU-EJ-27" style="edgeStyle=orthogonalEdgeStyle;rounded=0;orthogonalLoop=1;jettySize=auto;html=1;exitX=0.5;exitY=1;exitDx=0;exitDy=0;" edge="1" parent="1" source="p5baxyPhWxI7ZV6xU-EJ-18" target="p5baxyPhWxI7ZV6xU-EJ-18">
          <mxGeometry relative="1" as="geometry" />
        </mxCell>
        <mxCell id="p5baxyPhWxI7ZV6xU-EJ-28" style="edgeStyle=orthogonalEdgeStyle;rounded=0;orthogonalLoop=1;jettySize=auto;html=1;exitX=0.5;exitY=1;exitDx=0;exitDy=0;" edge="1" parent="1" source="p5baxyPhWxI7ZV6xU-EJ-19" target="p5baxyPhWxI7ZV6xU-EJ-19">
          <mxGeometry relative="1" as="geometry" />
        </mxCell>
        <mxCell id="p5baxyPhWxI7ZV6xU-EJ-29" value="" style="endArrow=none;html=1;rounded=0;exitX=1;exitY=1;exitDx=0;exitDy=0;entryX=0.5;entryY=1;entryDx=0;entryDy=0;" edge="1" parent="1" source="p5baxyPhWxI7ZV6xU-EJ-17" target="p5baxyPhWxI7ZV6xU-EJ-2">
          <mxGeometry relative="1" as="geometry">
            <mxPoint x="1785" y="146.32" as="sourcePoint" />
            <mxPoint x="1945" y="146.32" as="targetPoint" />
          </mxGeometry>
        </mxCell>
        <mxCell id="p5baxyPhWxI7ZV6xU-EJ-30" value="" style="endArrow=none;html=1;rounded=0;entryX=0.5;entryY=1;entryDx=0;entryDy=0;" edge="1" parent="1" target="p5baxyPhWxI7ZV6xU-EJ-2">
          <mxGeometry relative="1" as="geometry">
            <mxPoint x="1690" y="410" as="sourcePoint" />
            <mxPoint x="2155" y="210" as="targetPoint" />
          </mxGeometry>
        </mxCell>
        <mxCell id="p5baxyPhWxI7ZV6xU-EJ-31" value="" style="endArrow=none;html=1;rounded=0;exitX=1;exitY=0.5;exitDx=0;exitDy=0;" edge="1" parent="1" source="p5baxyPhWxI7ZV6xU-EJ-3">
          <mxGeometry relative="1" as="geometry">
            <mxPoint x="1873" y="80" as="sourcePoint" />
            <mxPoint x="2135" y="230" as="targetPoint" />
          </mxGeometry>
        </mxCell>
        <mxCell id="p5baxyPhWxI7ZV6xU-EJ-32" value="" style="endArrow=none;html=1;rounded=0;exitX=1;exitY=0;exitDx=0;exitDy=0;entryX=0.5;entryY=1;entryDx=0;entryDy=0;" edge="1" parent="1" source="p5baxyPhWxI7ZV6xU-EJ-16" target="p5baxyPhWxI7ZV6xU-EJ-2">
          <mxGeometry relative="1" as="geometry">
            <mxPoint x="1935" y="40" as="sourcePoint" />
            <mxPoint x="2129" y="190" as="targetPoint" />
          </mxGeometry>
        </mxCell>
        <mxCell id="p5baxyPhWxI7ZV6xU-EJ-33" value="" style="endArrow=none;html=1;rounded=0;entryX=0.5;entryY=1;entryDx=0;entryDy=0;exitX=0.5;exitY=0;exitDx=0;exitDy=0;" edge="1" parent="1" source="p5baxyPhWxI7ZV6xU-EJ-14" target="p5baxyPhWxI7ZV6xU-EJ-2">
          <mxGeometry relative="1" as="geometry">
            <mxPoint x="1840" y="570" as="sourcePoint" />
            <mxPoint x="2165" y="220" as="targetPoint" />
          </mxGeometry>
        </mxCell>
        <mxCell id="p5baxyPhWxI7ZV6xU-EJ-34" value="" style="endArrow=none;html=1;rounded=0;exitX=0.5;exitY=0;exitDx=0;exitDy=0;" edge="1" parent="1" source="p5baxyPhWxI7ZV6xU-EJ-1">
          <mxGeometry relative="1" as="geometry">
            <mxPoint x="2240" y="-70" as="sourcePoint" />
            <mxPoint x="2130" y="230" as="targetPoint" />
          </mxGeometry>
        </mxCell>
        <mxCell id="p5baxyPhWxI7ZV6xU-EJ-35" value="" style="endArrow=none;html=1;rounded=0;exitX=0;exitY=1;exitDx=0;exitDy=0;entryX=0.5;entryY=1;entryDx=0;entryDy=0;" edge="1" parent="1" source="p5baxyPhWxI7ZV6xU-EJ-15" target="p5baxyPhWxI7ZV6xU-EJ-2">
          <mxGeometry relative="1" as="geometry">
            <mxPoint x="2305" y="-10" as="sourcePoint" />
            <mxPoint x="2145" y="180" as="targetPoint" />
          </mxGeometry>
        </mxCell>
        <mxCell id="p5baxyPhWxI7ZV6xU-EJ-36" value="" style="endArrow=none;html=1;rounded=0;exitX=0;exitY=1;exitDx=0;exitDy=0;entryX=0.5;entryY=1;entryDx=0;entryDy=0;" edge="1" parent="1" source="p5baxyPhWxI7ZV6xU-EJ-18" target="p5baxyPhWxI7ZV6xU-EJ-2">
          <mxGeometry relative="1" as="geometry">
            <mxPoint x="2375" y="10" as="sourcePoint" />
            <mxPoint x="2315" y="180" as="targetPoint" />
          </mxGeometry>
        </mxCell>
        <mxCell id="p5baxyPhWxI7ZV6xU-EJ-37" value="" style="endArrow=none;html=1;rounded=0;exitX=0.041;exitY=0.751;exitDx=0;exitDy=0;exitPerimeter=0;" edge="1" parent="1" source="p5baxyPhWxI7ZV6xU-EJ-19">
          <mxGeometry relative="1" as="geometry">
            <mxPoint x="2464" y="46.5" as="sourcePoint" />
            <mxPoint x="2135" y="230" as="targetPoint" />
          </mxGeometry>
        </mxCell>
        <mxCell id="p5baxyPhWxI7ZV6xU-EJ-38" value="" style="endArrow=none;html=1;rounded=0;exitX=0.5;exitY=0;exitDx=0;exitDy=0;entryX=0.5;entryY=1;entryDx=0;entryDy=0;" edge="1" parent="1" source="p5baxyPhWxI7ZV6xU-EJ-13" target="p5baxyPhWxI7ZV6xU-EJ-2">
          <mxGeometry relative="1" as="geometry">
            <mxPoint x="2459" y="130" as="sourcePoint" />
            <mxPoint x="2145" y="180" as="targetPoint" />
          </mxGeometry>
        </mxCell>
        <mxCell id="p5baxyPhWxI7ZV6xU-EJ-39" value="sexo" style="ellipse;whiteSpace=wrap;html=1;" vertex="1" parent="1">
          <mxGeometry x="2195" y="-1190" width="80" height="60" as="geometry" />
        </mxCell>
        <mxCell id="p5baxyPhWxI7ZV6xU-EJ-217" style="edgeStyle=orthogonalEdgeStyle;rounded=0;orthogonalLoop=1;jettySize=auto;html=1;" edge="1" parent="1" source="p5baxyPhWxI7ZV6xU-EJ-40" target="p5baxyPhWxI7ZV6xU-EJ-218">
          <mxGeometry relative="1" as="geometry">
            <mxPoint x="3020" y="-860" as="targetPoint" />
          </mxGeometry>
        </mxCell>
        <mxCell id="p5baxyPhWxI7ZV6xU-EJ-40" value="Voluntário" style="rounded=0;whiteSpace=wrap;html=1;" vertex="1" parent="1">
          <mxGeometry x="1910" y="-910" width="400" height="100" as="geometry" />
        </mxCell>
        <mxCell id="p5baxyPhWxI7ZV6xU-EJ-41" value="Nome" style="ellipse;whiteSpace=wrap;html=1;" vertex="1" parent="1">
          <mxGeometry x="1770" y="-1107.5" width="93" height="55" as="geometry" />
        </mxCell>
        <mxCell id="p5baxyPhWxI7ZV6xU-EJ-42" value="CPF" style="ellipse;whiteSpace=wrap;html=1;" vertex="1" parent="1">
          <mxGeometry x="1710" y="-1047.5" width="95" height="45" as="geometry" />
        </mxCell>
        <mxCell id="p5baxyPhWxI7ZV6xU-EJ-43" value="Endereço" style="ellipse;whiteSpace=wrap;html=1;" vertex="1" parent="1">
          <mxGeometry x="2045" y="-1210" width="150" height="60" as="geometry" />
        </mxCell>
        <mxCell id="p5baxyPhWxI7ZV6xU-EJ-44" value="CEP" style="ellipse;whiteSpace=wrap;html=1;" vertex="1" parent="1">
          <mxGeometry x="1977" y="-1300" width="40" height="30" as="geometry" />
        </mxCell>
        <mxCell id="p5baxyPhWxI7ZV6xU-EJ-45" value="Logradouro" style="ellipse;whiteSpace=wrap;html=1;" vertex="1" parent="1">
          <mxGeometry x="1910" y="-1270" width="80" height="50" as="geometry" />
        </mxCell>
        <mxCell id="p5baxyPhWxI7ZV6xU-EJ-46" value="Bairro" style="ellipse;whiteSpace=wrap;html=1;" vertex="1" parent="1">
          <mxGeometry x="2160" y="-1330" width="90" height="30" as="geometry" />
        </mxCell>
        <mxCell id="p5baxyPhWxI7ZV6xU-EJ-47" value="Complemeneto" style="ellipse;whiteSpace=wrap;html=1;" vertex="1" parent="1">
          <mxGeometry x="2060" y="-1330" width="100" height="30" as="geometry" />
        </mxCell>
        <mxCell id="p5baxyPhWxI7ZV6xU-EJ-48" value="Cidade" style="ellipse;whiteSpace=wrap;html=1;" vertex="1" parent="1">
          <mxGeometry x="2225" y="-1290" width="90" height="30" as="geometry" />
        </mxCell>
        <mxCell id="p5baxyPhWxI7ZV6xU-EJ-49" value="UF" style="ellipse;whiteSpace=wrap;html=1;" vertex="1" parent="1">
          <mxGeometry x="2017" y="-1320" width="40" height="30" as="geometry" />
        </mxCell>
        <mxCell id="p5baxyPhWxI7ZV6xU-EJ-50" value="Número" style="ellipse;whiteSpace=wrap;html=1;" vertex="1" parent="1">
          <mxGeometry x="2280" y="-1260" width="90" height="50" as="geometry" />
        </mxCell>
        <mxCell id="p5baxyPhWxI7ZV6xU-EJ-51" value="data de nascimento" style="ellipse;whiteSpace=wrap;html=1;" vertex="1" parent="1">
          <mxGeometry x="2430" y="-1015" width="105" height="60" as="geometry" />
        </mxCell>
        <mxCell id="p5baxyPhWxI7ZV6xU-EJ-52" value="Área de atuação" style="ellipse;whiteSpace=wrap;html=1;" vertex="1" parent="1">
          <mxGeometry x="1944.5" y="-1195" width="105" height="70" as="geometry" />
        </mxCell>
        <mxCell id="p5baxyPhWxI7ZV6xU-EJ-53" value="status de aprovação" style="ellipse;whiteSpace=wrap;html=1;" vertex="1" parent="1">
          <mxGeometry x="2250" y="-1162.5" width="120" height="75" as="geometry" />
        </mxCell>
        <mxCell id="p5baxyPhWxI7ZV6xU-EJ-54" value="Avaliação" style="ellipse;whiteSpace=wrap;html=1;" vertex="1" parent="1">
          <mxGeometry x="1853" y="-1147.5" width="105" height="60" as="geometry" />
        </mxCell>
        <mxCell id="p5baxyPhWxI7ZV6xU-EJ-55" value="&lt;font style=&quot;font-size: 14px;&quot;&gt;Código&lt;/font&gt;" style="ellipse;whiteSpace=wrap;html=1;align=center;fontStyle=4;" vertex="1" parent="1">
          <mxGeometry x="1650" y="-1002.5" width="100" height="70" as="geometry" />
        </mxCell>
        <mxCell id="p5baxyPhWxI7ZV6xU-EJ-56" value="&lt;div&gt;Email&lt;/div&gt;" style="ellipse;shape=doubleEllipse;margin=3;whiteSpace=wrap;html=1;align=center;" vertex="1" parent="1">
          <mxGeometry x="2350" y="-1092.5" width="100" height="40" as="geometry" />
        </mxCell>
        <mxCell id="p5baxyPhWxI7ZV6xU-EJ-57" value="Telefone" style="ellipse;shape=doubleEllipse;margin=3;whiteSpace=wrap;html=1;align=center;" vertex="1" parent="1">
          <mxGeometry x="2410" y="-1055" width="100" height="40" as="geometry" />
        </mxCell>
        <mxCell id="p5baxyPhWxI7ZV6xU-EJ-58" value="" style="endArrow=none;html=1;rounded=0;exitX=1;exitY=1;exitDx=0;exitDy=0;entryX=0.5;entryY=0;entryDx=0;entryDy=0;" edge="1" parent="1" source="p5baxyPhWxI7ZV6xU-EJ-44" target="p5baxyPhWxI7ZV6xU-EJ-43">
          <mxGeometry relative="1" as="geometry">
            <mxPoint x="2039" y="-1260" as="sourcePoint" />
            <mxPoint x="2087" y="-1235" as="targetPoint" />
          </mxGeometry>
        </mxCell>
        <mxCell id="p5baxyPhWxI7ZV6xU-EJ-59" value="" style="endArrow=none;html=1;rounded=0;exitX=0.5;exitY=1;exitDx=0;exitDy=0;entryX=0.5;entryY=0;entryDx=0;entryDy=0;" edge="1" parent="1" source="p5baxyPhWxI7ZV6xU-EJ-45" target="p5baxyPhWxI7ZV6xU-EJ-43">
          <mxGeometry relative="1" as="geometry">
            <mxPoint x="2049" y="-1199" as="sourcePoint" />
            <mxPoint x="2097" y="-1174" as="targetPoint" />
          </mxGeometry>
        </mxCell>
        <mxCell id="p5baxyPhWxI7ZV6xU-EJ-60" value="" style="endArrow=none;html=1;rounded=0;entryX=0.5;entryY=0;entryDx=0;entryDy=0;exitX=0.5;exitY=1;exitDx=0;exitDy=0;" edge="1" parent="1" source="p5baxyPhWxI7ZV6xU-EJ-49" target="p5baxyPhWxI7ZV6xU-EJ-43">
          <mxGeometry relative="1" as="geometry">
            <mxPoint x="2050" y="-1290" as="sourcePoint" />
            <mxPoint x="2118" y="-1265" as="targetPoint" />
          </mxGeometry>
        </mxCell>
        <mxCell id="p5baxyPhWxI7ZV6xU-EJ-61" value="" style="endArrow=none;html=1;rounded=0;exitX=0.599;exitY=0.97;exitDx=0;exitDy=0;exitPerimeter=0;" edge="1" parent="1" source="p5baxyPhWxI7ZV6xU-EJ-47" target="p5baxyPhWxI7ZV6xU-EJ-43">
          <mxGeometry relative="1" as="geometry">
            <mxPoint x="2111.2" y="-1303.9899999999998" as="sourcePoint" />
            <mxPoint x="2120" y="-1210" as="targetPoint" />
          </mxGeometry>
        </mxCell>
        <mxCell id="p5baxyPhWxI7ZV6xU-EJ-62" value="" style="endArrow=none;html=1;rounded=0;exitX=0.5;exitY=1;exitDx=0;exitDy=0;entryX=0.5;entryY=0;entryDx=0;entryDy=0;" edge="1" parent="1" source="p5baxyPhWxI7ZV6xU-EJ-46" target="p5baxyPhWxI7ZV6xU-EJ-43">
          <mxGeometry relative="1" as="geometry">
            <mxPoint x="2160" y="-1260" as="sourcePoint" />
            <mxPoint x="2208" y="-1235" as="targetPoint" />
          </mxGeometry>
        </mxCell>
        <mxCell id="p5baxyPhWxI7ZV6xU-EJ-63" value="" style="endArrow=none;html=1;rounded=0;entryX=0.5;entryY=1;entryDx=0;entryDy=0;exitX=0.5;exitY=0;exitDx=0;exitDy=0;" edge="1" parent="1" source="p5baxyPhWxI7ZV6xU-EJ-43" target="p5baxyPhWxI7ZV6xU-EJ-48">
          <mxGeometry relative="1" as="geometry">
            <mxPoint x="2191" y="-1250" as="sourcePoint" />
            <mxPoint x="2239" y="-1225" as="targetPoint" />
          </mxGeometry>
        </mxCell>
        <mxCell id="p5baxyPhWxI7ZV6xU-EJ-64" value="" style="endArrow=none;html=1;rounded=0;entryX=0.5;entryY=1;entryDx=0;entryDy=0;exitX=0.5;exitY=0;exitDx=0;exitDy=0;" edge="1" parent="1" source="p5baxyPhWxI7ZV6xU-EJ-43" target="p5baxyPhWxI7ZV6xU-EJ-50">
          <mxGeometry relative="1" as="geometry">
            <mxPoint x="2212" y="-1200" as="sourcePoint" />
            <mxPoint x="2260" y="-1175" as="targetPoint" />
          </mxGeometry>
        </mxCell>
        <mxCell id="p5baxyPhWxI7ZV6xU-EJ-65" style="edgeStyle=orthogonalEdgeStyle;rounded=0;orthogonalLoop=1;jettySize=auto;html=1;exitX=0.5;exitY=1;exitDx=0;exitDy=0;" edge="1" parent="1" source="p5baxyPhWxI7ZV6xU-EJ-56" target="p5baxyPhWxI7ZV6xU-EJ-56">
          <mxGeometry relative="1" as="geometry" />
        </mxCell>
        <mxCell id="p5baxyPhWxI7ZV6xU-EJ-66" style="edgeStyle=orthogonalEdgeStyle;rounded=0;orthogonalLoop=1;jettySize=auto;html=1;exitX=0.5;exitY=1;exitDx=0;exitDy=0;" edge="1" parent="1" source="p5baxyPhWxI7ZV6xU-EJ-57" target="p5baxyPhWxI7ZV6xU-EJ-57">
          <mxGeometry relative="1" as="geometry" />
        </mxCell>
        <mxCell id="p5baxyPhWxI7ZV6xU-EJ-67" value="" style="endArrow=none;html=1;rounded=0;exitX=1;exitY=1;exitDx=0;exitDy=0;entryX=0.5;entryY=0;entryDx=0;entryDy=0;" edge="1" parent="1" source="p5baxyPhWxI7ZV6xU-EJ-55" target="p5baxyPhWxI7ZV6xU-EJ-40">
          <mxGeometry relative="1" as="geometry">
            <mxPoint x="1770" y="-893.6800000000001" as="sourcePoint" />
            <mxPoint x="1930" y="-893.6800000000001" as="targetPoint" />
          </mxGeometry>
        </mxCell>
        <mxCell id="p5baxyPhWxI7ZV6xU-EJ-68" value="" style="endArrow=none;html=1;rounded=0;exitX=0.5;exitY=1;exitDx=0;exitDy=0;entryX=0.5;entryY=0;entryDx=0;entryDy=0;" edge="1" parent="1" source="p5baxyPhWxI7ZV6xU-EJ-42" target="p5baxyPhWxI7ZV6xU-EJ-40">
          <mxGeometry relative="1" as="geometry">
            <mxPoint x="1820" y="-945" as="sourcePoint" />
            <mxPoint x="2140" y="-830" as="targetPoint" />
          </mxGeometry>
        </mxCell>
        <mxCell id="p5baxyPhWxI7ZV6xU-EJ-69" value="" style="endArrow=none;html=1;rounded=0;exitX=0.5;exitY=1;exitDx=0;exitDy=0;entryX=0.484;entryY=-0.034;entryDx=0;entryDy=0;entryPerimeter=0;" edge="1" parent="1" source="p5baxyPhWxI7ZV6xU-EJ-41" target="p5baxyPhWxI7ZV6xU-EJ-40">
          <mxGeometry relative="1" as="geometry">
            <mxPoint x="1858" y="-960" as="sourcePoint" />
            <mxPoint x="2140" y="-850" as="targetPoint" />
          </mxGeometry>
        </mxCell>
        <mxCell id="p5baxyPhWxI7ZV6xU-EJ-70" value="" style="endArrow=none;html=1;rounded=0;exitX=0.5;exitY=1;exitDx=0;exitDy=0;entryX=0.5;entryY=0;entryDx=0;entryDy=0;" edge="1" parent="1" source="p5baxyPhWxI7ZV6xU-EJ-54" target="p5baxyPhWxI7ZV6xU-EJ-40">
          <mxGeometry relative="1" as="geometry">
            <mxPoint x="1920" y="-1000" as="sourcePoint" />
            <mxPoint x="2114" y="-850" as="targetPoint" />
          </mxGeometry>
        </mxCell>
        <mxCell id="p5baxyPhWxI7ZV6xU-EJ-71" value="" style="endArrow=none;html=1;rounded=0;exitX=0.5;exitY=1;exitDx=0;exitDy=0;entryX=0.5;entryY=0;entryDx=0;entryDy=0;" edge="1" parent="1" source="p5baxyPhWxI7ZV6xU-EJ-52" target="p5baxyPhWxI7ZV6xU-EJ-40">
          <mxGeometry relative="1" as="geometry">
            <mxPoint x="1980" y="-1050" as="sourcePoint" />
            <mxPoint x="2150" y="-820" as="targetPoint" />
          </mxGeometry>
        </mxCell>
        <mxCell id="p5baxyPhWxI7ZV6xU-EJ-72" value="" style="endArrow=none;html=1;rounded=0;entryX=0.5;entryY=0;entryDx=0;entryDy=0;exitX=0.5;exitY=1;exitDx=0;exitDy=0;" edge="1" parent="1" source="p5baxyPhWxI7ZV6xU-EJ-43" target="p5baxyPhWxI7ZV6xU-EJ-40">
          <mxGeometry relative="1" as="geometry">
            <mxPoint x="2102" y="-1127.5" as="sourcePoint" />
            <mxPoint x="2160" y="-886.5" as="targetPoint" />
          </mxGeometry>
        </mxCell>
        <mxCell id="p5baxyPhWxI7ZV6xU-EJ-73" value="" style="endArrow=none;html=1;rounded=0;exitX=0;exitY=1;exitDx=0;exitDy=0;entryX=0.5;entryY=0;entryDx=0;entryDy=0;" edge="1" parent="1" source="p5baxyPhWxI7ZV6xU-EJ-39" target="p5baxyPhWxI7ZV6xU-EJ-40">
          <mxGeometry relative="1" as="geometry">
            <mxPoint x="2225" y="-1110" as="sourcePoint" />
            <mxPoint x="2283" y="-869" as="targetPoint" />
          </mxGeometry>
        </mxCell>
        <mxCell id="p5baxyPhWxI7ZV6xU-EJ-74" value="" style="endArrow=none;html=1;rounded=0;exitX=0;exitY=1;exitDx=0;exitDy=0;entryX=0.5;entryY=0;entryDx=0;entryDy=0;" edge="1" parent="1" source="p5baxyPhWxI7ZV6xU-EJ-53" target="p5baxyPhWxI7ZV6xU-EJ-40">
          <mxGeometry relative="1" as="geometry">
            <mxPoint x="2290" y="-1050" as="sourcePoint" />
            <mxPoint x="2130" y="-860" as="targetPoint" />
          </mxGeometry>
        </mxCell>
        <mxCell id="p5baxyPhWxI7ZV6xU-EJ-75" value="" style="endArrow=none;html=1;rounded=0;exitX=0;exitY=1;exitDx=0;exitDy=0;entryX=0.5;entryY=0;entryDx=0;entryDy=0;" edge="1" parent="1" source="p5baxyPhWxI7ZV6xU-EJ-56" target="p5baxyPhWxI7ZV6xU-EJ-40">
          <mxGeometry relative="1" as="geometry">
            <mxPoint x="2360" y="-1030" as="sourcePoint" />
            <mxPoint x="2300" y="-860" as="targetPoint" />
          </mxGeometry>
        </mxCell>
        <mxCell id="p5baxyPhWxI7ZV6xU-EJ-76" value="" style="endArrow=none;html=1;rounded=0;exitX=0.041;exitY=0.751;exitDx=0;exitDy=0;exitPerimeter=0;entryX=0.5;entryY=0;entryDx=0;entryDy=0;" edge="1" parent="1" source="p5baxyPhWxI7ZV6xU-EJ-57" target="p5baxyPhWxI7ZV6xU-EJ-40">
          <mxGeometry relative="1" as="geometry">
            <mxPoint x="2449" y="-993.5" as="sourcePoint" />
            <mxPoint x="2130" y="-860" as="targetPoint" />
          </mxGeometry>
        </mxCell>
        <mxCell id="p5baxyPhWxI7ZV6xU-EJ-77" value="" style="endArrow=none;html=1;rounded=0;exitX=0.055;exitY=0.719;exitDx=0;exitDy=0;exitPerimeter=0;entryX=0.5;entryY=0;entryDx=0;entryDy=0;" edge="1" parent="1" source="p5baxyPhWxI7ZV6xU-EJ-51" target="p5baxyPhWxI7ZV6xU-EJ-40">
          <mxGeometry relative="1" as="geometry">
            <mxPoint x="2444" y="-910" as="sourcePoint" />
            <mxPoint x="2130" y="-860" as="targetPoint" />
          </mxGeometry>
        </mxCell>
        <mxCell id="p5baxyPhWxI7ZV6xU-EJ-78" value="Idade" style="ellipse;whiteSpace=wrap;html=1;align=center;dashed=1;" vertex="1" parent="1">
          <mxGeometry x="2450" y="-950" width="100" height="40" as="geometry" />
        </mxCell>
        <mxCell id="p5baxyPhWxI7ZV6xU-EJ-79" value="" style="endArrow=none;html=1;rounded=0;entryX=0;entryY=0.5;entryDx=0;entryDy=0;exitX=0.5;exitY=0;exitDx=0;exitDy=0;" edge="1" parent="1" source="p5baxyPhWxI7ZV6xU-EJ-40" target="p5baxyPhWxI7ZV6xU-EJ-78">
          <mxGeometry relative="1" as="geometry">
            <mxPoint x="2350" y="-880" as="sourcePoint" />
            <mxPoint x="2510" y="-880" as="targetPoint" />
          </mxGeometry>
        </mxCell>
        <mxCell id="p5baxyPhWxI7ZV6xU-EJ-80" value="sexo" style="ellipse;whiteSpace=wrap;html=1;" vertex="1" parent="1">
          <mxGeometry x="1475" y="-650" width="80" height="60" as="geometry" />
        </mxCell>
        <mxCell id="p5baxyPhWxI7ZV6xU-EJ-81" value="" style="edgeStyle=orthogonalEdgeStyle;rounded=0;orthogonalLoop=1;jettySize=auto;html=1;" edge="1" parent="1" source="p5baxyPhWxI7ZV6xU-EJ-82" target="p5baxyPhWxI7ZV6xU-EJ-157">
          <mxGeometry relative="1" as="geometry" />
        </mxCell>
        <mxCell id="p5baxyPhWxI7ZV6xU-EJ-82" value="Curadoria" style="rounded=0;whiteSpace=wrap;html=1;" vertex="1" parent="1">
          <mxGeometry x="1200" y="-370" width="400" height="100" as="geometry" />
        </mxCell>
        <mxCell id="p5baxyPhWxI7ZV6xU-EJ-83" value="Nome" style="ellipse;whiteSpace=wrap;html=1;" vertex="1" parent="1">
          <mxGeometry x="1131.5" y="-602.5" width="93" height="55" as="geometry" />
        </mxCell>
        <mxCell id="p5baxyPhWxI7ZV6xU-EJ-84" value="CPF" style="ellipse;whiteSpace=wrap;html=1;" vertex="1" parent="1">
          <mxGeometry x="1060" y="-560" width="95" height="45" as="geometry" />
        </mxCell>
        <mxCell id="p5baxyPhWxI7ZV6xU-EJ-85" value="Endereço" style="ellipse;whiteSpace=wrap;html=1;" vertex="1" parent="1">
          <mxGeometry x="1329.5" y="-644" width="150" height="60" as="geometry" />
        </mxCell>
        <mxCell id="p5baxyPhWxI7ZV6xU-EJ-86" value="CEP" style="ellipse;whiteSpace=wrap;html=1;" vertex="1" parent="1">
          <mxGeometry x="1257" y="-760" width="40" height="30" as="geometry" />
        </mxCell>
        <mxCell id="p5baxyPhWxI7ZV6xU-EJ-87" value="Logradouro" style="ellipse;whiteSpace=wrap;html=1;" vertex="1" parent="1">
          <mxGeometry x="1190" y="-730" width="80" height="50" as="geometry" />
        </mxCell>
        <mxCell id="p5baxyPhWxI7ZV6xU-EJ-88" value="Bairro" style="ellipse;whiteSpace=wrap;html=1;" vertex="1" parent="1">
          <mxGeometry x="1440" y="-790" width="90" height="30" as="geometry" />
        </mxCell>
        <mxCell id="p5baxyPhWxI7ZV6xU-EJ-89" value="Complemeneto" style="ellipse;whiteSpace=wrap;html=1;" vertex="1" parent="1">
          <mxGeometry x="1340" y="-790" width="100" height="30" as="geometry" />
        </mxCell>
        <mxCell id="p5baxyPhWxI7ZV6xU-EJ-90" value="Cidade" style="ellipse;whiteSpace=wrap;html=1;" vertex="1" parent="1">
          <mxGeometry x="1505" y="-750" width="90" height="30" as="geometry" />
        </mxCell>
        <mxCell id="p5baxyPhWxI7ZV6xU-EJ-91" value="UF" style="ellipse;whiteSpace=wrap;html=1;" vertex="1" parent="1">
          <mxGeometry x="1297" y="-780" width="40" height="30" as="geometry" />
        </mxCell>
        <mxCell id="p5baxyPhWxI7ZV6xU-EJ-92" value="Número" style="ellipse;whiteSpace=wrap;html=1;" vertex="1" parent="1">
          <mxGeometry x="1560" y="-720" width="90" height="50" as="geometry" />
        </mxCell>
        <mxCell id="p5baxyPhWxI7ZV6xU-EJ-93" value="data de nascimento" style="ellipse;whiteSpace=wrap;html=1;" vertex="1" parent="1">
          <mxGeometry x="1695" y="-520" width="105" height="60" as="geometry" />
        </mxCell>
        <mxCell id="p5baxyPhWxI7ZV6xU-EJ-94" value="Profissão" style="ellipse;whiteSpace=wrap;html=1;" vertex="1" parent="1">
          <mxGeometry x="1224.5" y="-635" width="105" height="60" as="geometry" />
        </mxCell>
        <mxCell id="p5baxyPhWxI7ZV6xU-EJ-95" value="&lt;font style=&quot;font-size: 14px;&quot;&gt;Código&lt;/font&gt;" style="ellipse;whiteSpace=wrap;html=1;align=center;fontStyle=4;" vertex="1" parent="1">
          <mxGeometry x="1010" y="-515" width="100" height="70" as="geometry" />
        </mxCell>
        <mxCell id="p5baxyPhWxI7ZV6xU-EJ-96" value="&lt;div&gt;Email&lt;/div&gt;" style="ellipse;shape=doubleEllipse;margin=3;whiteSpace=wrap;html=1;align=center;" vertex="1" parent="1">
          <mxGeometry x="1560" y="-607.5" width="100" height="40" as="geometry" />
        </mxCell>
        <mxCell id="p5baxyPhWxI7ZV6xU-EJ-97" value="Telefone" style="ellipse;shape=doubleEllipse;margin=3;whiteSpace=wrap;html=1;align=center;" vertex="1" parent="1">
          <mxGeometry x="1630" y="-560" width="100" height="40" as="geometry" />
        </mxCell>
        <mxCell id="p5baxyPhWxI7ZV6xU-EJ-98" value="" style="endArrow=none;html=1;rounded=0;exitX=1;exitY=1;exitDx=0;exitDy=0;entryX=0.5;entryY=0;entryDx=0;entryDy=0;" edge="1" parent="1" source="p5baxyPhWxI7ZV6xU-EJ-86" target="p5baxyPhWxI7ZV6xU-EJ-85">
          <mxGeometry relative="1" as="geometry">
            <mxPoint x="1319" y="-720" as="sourcePoint" />
            <mxPoint x="1367" y="-695" as="targetPoint" />
          </mxGeometry>
        </mxCell>
        <mxCell id="p5baxyPhWxI7ZV6xU-EJ-99" value="" style="endArrow=none;html=1;rounded=0;exitX=0.5;exitY=1;exitDx=0;exitDy=0;entryX=0.5;entryY=0;entryDx=0;entryDy=0;" edge="1" parent="1" source="p5baxyPhWxI7ZV6xU-EJ-87" target="p5baxyPhWxI7ZV6xU-EJ-85">
          <mxGeometry relative="1" as="geometry">
            <mxPoint x="1329" y="-659" as="sourcePoint" />
            <mxPoint x="1377" y="-634" as="targetPoint" />
          </mxGeometry>
        </mxCell>
        <mxCell id="p5baxyPhWxI7ZV6xU-EJ-100" value="" style="endArrow=none;html=1;rounded=0;entryX=0.5;entryY=0;entryDx=0;entryDy=0;exitX=0.5;exitY=1;exitDx=0;exitDy=0;" edge="1" parent="1" source="p5baxyPhWxI7ZV6xU-EJ-91" target="p5baxyPhWxI7ZV6xU-EJ-85">
          <mxGeometry relative="1" as="geometry">
            <mxPoint x="1330" y="-750" as="sourcePoint" />
            <mxPoint x="1398" y="-725" as="targetPoint" />
          </mxGeometry>
        </mxCell>
        <mxCell id="p5baxyPhWxI7ZV6xU-EJ-101" value="" style="endArrow=none;html=1;rounded=0;exitX=0.599;exitY=0.97;exitDx=0;exitDy=0;exitPerimeter=0;" edge="1" parent="1" source="p5baxyPhWxI7ZV6xU-EJ-89" target="p5baxyPhWxI7ZV6xU-EJ-85">
          <mxGeometry relative="1" as="geometry">
            <mxPoint x="1391.1999999999998" y="-763.9899999999998" as="sourcePoint" />
            <mxPoint x="1400" y="-670" as="targetPoint" />
          </mxGeometry>
        </mxCell>
        <mxCell id="p5baxyPhWxI7ZV6xU-EJ-102" value="" style="endArrow=none;html=1;rounded=0;exitX=0.5;exitY=1;exitDx=0;exitDy=0;entryX=0.5;entryY=0;entryDx=0;entryDy=0;" edge="1" parent="1" source="p5baxyPhWxI7ZV6xU-EJ-88" target="p5baxyPhWxI7ZV6xU-EJ-85">
          <mxGeometry relative="1" as="geometry">
            <mxPoint x="1440" y="-720" as="sourcePoint" />
            <mxPoint x="1488" y="-695" as="targetPoint" />
          </mxGeometry>
        </mxCell>
        <mxCell id="p5baxyPhWxI7ZV6xU-EJ-103" value="" style="endArrow=none;html=1;rounded=0;entryX=0.5;entryY=1;entryDx=0;entryDy=0;exitX=0.5;exitY=0;exitDx=0;exitDy=0;" edge="1" parent="1" source="p5baxyPhWxI7ZV6xU-EJ-85" target="p5baxyPhWxI7ZV6xU-EJ-90">
          <mxGeometry relative="1" as="geometry">
            <mxPoint x="1471" y="-710" as="sourcePoint" />
            <mxPoint x="1519" y="-685" as="targetPoint" />
          </mxGeometry>
        </mxCell>
        <mxCell id="p5baxyPhWxI7ZV6xU-EJ-104" value="" style="endArrow=none;html=1;rounded=0;entryX=0.5;entryY=1;entryDx=0;entryDy=0;exitX=0.5;exitY=0;exitDx=0;exitDy=0;" edge="1" parent="1" source="p5baxyPhWxI7ZV6xU-EJ-85" target="p5baxyPhWxI7ZV6xU-EJ-92">
          <mxGeometry relative="1" as="geometry">
            <mxPoint x="1492" y="-660" as="sourcePoint" />
            <mxPoint x="1540" y="-635" as="targetPoint" />
          </mxGeometry>
        </mxCell>
        <mxCell id="p5baxyPhWxI7ZV6xU-EJ-105" style="edgeStyle=orthogonalEdgeStyle;rounded=0;orthogonalLoop=1;jettySize=auto;html=1;exitX=0.5;exitY=1;exitDx=0;exitDy=0;" edge="1" parent="1" source="p5baxyPhWxI7ZV6xU-EJ-96" target="p5baxyPhWxI7ZV6xU-EJ-96">
          <mxGeometry relative="1" as="geometry" />
        </mxCell>
        <mxCell id="p5baxyPhWxI7ZV6xU-EJ-106" style="edgeStyle=orthogonalEdgeStyle;rounded=0;orthogonalLoop=1;jettySize=auto;html=1;exitX=0.5;exitY=1;exitDx=0;exitDy=0;" edge="1" parent="1" source="p5baxyPhWxI7ZV6xU-EJ-97" target="p5baxyPhWxI7ZV6xU-EJ-97">
          <mxGeometry relative="1" as="geometry" />
        </mxCell>
        <mxCell id="p5baxyPhWxI7ZV6xU-EJ-107" value="" style="endArrow=none;html=1;rounded=0;exitX=1;exitY=1;exitDx=0;exitDy=0;entryX=0.5;entryY=0;entryDx=0;entryDy=0;" edge="1" parent="1" source="p5baxyPhWxI7ZV6xU-EJ-95" target="p5baxyPhWxI7ZV6xU-EJ-82">
          <mxGeometry relative="1" as="geometry">
            <mxPoint x="1050" y="-353.68" as="sourcePoint" />
            <mxPoint x="1210" y="-353.68" as="targetPoint" />
          </mxGeometry>
        </mxCell>
        <mxCell id="p5baxyPhWxI7ZV6xU-EJ-108" value="" style="endArrow=none;html=1;rounded=0;exitX=0.5;exitY=1;exitDx=0;exitDy=0;entryX=0.5;entryY=0;entryDx=0;entryDy=0;" edge="1" parent="1" source="p5baxyPhWxI7ZV6xU-EJ-84" target="p5baxyPhWxI7ZV6xU-EJ-82">
          <mxGeometry relative="1" as="geometry">
            <mxPoint x="1100" y="-405" as="sourcePoint" />
            <mxPoint x="1420" y="-290" as="targetPoint" />
          </mxGeometry>
        </mxCell>
        <mxCell id="p5baxyPhWxI7ZV6xU-EJ-109" value="" style="endArrow=none;html=1;rounded=0;exitX=0.5;exitY=1;exitDx=0;exitDy=0;entryX=0.484;entryY=-0.034;entryDx=0;entryDy=0;entryPerimeter=0;" edge="1" parent="1" source="p5baxyPhWxI7ZV6xU-EJ-83" target="p5baxyPhWxI7ZV6xU-EJ-82">
          <mxGeometry relative="1" as="geometry">
            <mxPoint x="1138" y="-420" as="sourcePoint" />
            <mxPoint x="1420" y="-310" as="targetPoint" />
          </mxGeometry>
        </mxCell>
        <mxCell id="p5baxyPhWxI7ZV6xU-EJ-110" value="" style="endArrow=none;html=1;rounded=0;exitX=0.5;exitY=1;exitDx=0;exitDy=0;entryX=0.5;entryY=0;entryDx=0;entryDy=0;" edge="1" parent="1" source="p5baxyPhWxI7ZV6xU-EJ-94" target="p5baxyPhWxI7ZV6xU-EJ-82">
          <mxGeometry relative="1" as="geometry">
            <mxPoint x="1200" y="-460" as="sourcePoint" />
            <mxPoint x="1394" y="-310" as="targetPoint" />
          </mxGeometry>
        </mxCell>
        <mxCell id="p5baxyPhWxI7ZV6xU-EJ-111" value="" style="endArrow=none;html=1;rounded=0;entryX=0.5;entryY=0;entryDx=0;entryDy=0;exitX=0.5;exitY=1;exitDx=0;exitDy=0;" edge="1" parent="1" source="p5baxyPhWxI7ZV6xU-EJ-85" target="p5baxyPhWxI7ZV6xU-EJ-82">
          <mxGeometry relative="1" as="geometry">
            <mxPoint x="1382" y="-587.5" as="sourcePoint" />
            <mxPoint x="1440" y="-346.5" as="targetPoint" />
          </mxGeometry>
        </mxCell>
        <mxCell id="p5baxyPhWxI7ZV6xU-EJ-112" value="" style="endArrow=none;html=1;rounded=0;exitX=0;exitY=1;exitDx=0;exitDy=0;entryX=0.5;entryY=0;entryDx=0;entryDy=0;" edge="1" parent="1" source="p5baxyPhWxI7ZV6xU-EJ-80" target="p5baxyPhWxI7ZV6xU-EJ-82">
          <mxGeometry relative="1" as="geometry">
            <mxPoint x="1505" y="-570" as="sourcePoint" />
            <mxPoint x="1563" y="-329" as="targetPoint" />
          </mxGeometry>
        </mxCell>
        <mxCell id="p5baxyPhWxI7ZV6xU-EJ-113" value="" style="endArrow=none;html=1;rounded=0;exitX=0;exitY=1;exitDx=0;exitDy=0;entryX=0.5;entryY=0;entryDx=0;entryDy=0;" edge="1" parent="1" source="p5baxyPhWxI7ZV6xU-EJ-96" target="p5baxyPhWxI7ZV6xU-EJ-82">
          <mxGeometry relative="1" as="geometry">
            <mxPoint x="1640" y="-490" as="sourcePoint" />
            <mxPoint x="1580" y="-320" as="targetPoint" />
          </mxGeometry>
        </mxCell>
        <mxCell id="p5baxyPhWxI7ZV6xU-EJ-114" value="" style="endArrow=none;html=1;rounded=0;exitX=0.041;exitY=0.751;exitDx=0;exitDy=0;exitPerimeter=0;entryX=0.5;entryY=0;entryDx=0;entryDy=0;" edge="1" parent="1" source="p5baxyPhWxI7ZV6xU-EJ-97" target="p5baxyPhWxI7ZV6xU-EJ-82">
          <mxGeometry relative="1" as="geometry">
            <mxPoint x="1729" y="-453.5" as="sourcePoint" />
            <mxPoint x="1410" y="-320" as="targetPoint" />
          </mxGeometry>
        </mxCell>
        <mxCell id="p5baxyPhWxI7ZV6xU-EJ-115" value="" style="endArrow=none;html=1;rounded=0;exitX=0.055;exitY=0.719;exitDx=0;exitDy=0;exitPerimeter=0;entryX=0.5;entryY=0;entryDx=0;entryDy=0;" edge="1" parent="1" source="p5baxyPhWxI7ZV6xU-EJ-93" target="p5baxyPhWxI7ZV6xU-EJ-82">
          <mxGeometry relative="1" as="geometry">
            <mxPoint x="1724" y="-370" as="sourcePoint" />
            <mxPoint x="1410" y="-320" as="targetPoint" />
          </mxGeometry>
        </mxCell>
        <mxCell id="p5baxyPhWxI7ZV6xU-EJ-116" value="Idade" style="ellipse;whiteSpace=wrap;html=1;align=center;dashed=1;" vertex="1" parent="1">
          <mxGeometry x="1720" y="-450" width="100" height="40" as="geometry" />
        </mxCell>
        <mxCell id="p5baxyPhWxI7ZV6xU-EJ-117" value="" style="endArrow=none;html=1;rounded=0;entryX=0;entryY=0.5;entryDx=0;entryDy=0;exitX=0.5;exitY=0;exitDx=0;exitDy=0;" edge="1" parent="1" source="p5baxyPhWxI7ZV6xU-EJ-82" target="p5baxyPhWxI7ZV6xU-EJ-116">
          <mxGeometry relative="1" as="geometry">
            <mxPoint x="1630" y="-340" as="sourcePoint" />
            <mxPoint x="1790" y="-340" as="targetPoint" />
          </mxGeometry>
        </mxCell>
        <mxCell id="p5baxyPhWxI7ZV6xU-EJ-118" style="edgeStyle=orthogonalEdgeStyle;rounded=0;orthogonalLoop=1;jettySize=auto;html=1;exitX=0.5;exitY=1;exitDx=0;exitDy=0;" edge="1" parent="1" source="p5baxyPhWxI7ZV6xU-EJ-116" target="p5baxyPhWxI7ZV6xU-EJ-116">
          <mxGeometry relative="1" as="geometry" />
        </mxCell>
        <mxCell id="p5baxyPhWxI7ZV6xU-EJ-119" value="Status" style="ellipse;whiteSpace=wrap;html=1;" vertex="1" parent="1">
          <mxGeometry x="3047" y="-250" width="80" height="60" as="geometry" />
        </mxCell>
        <mxCell id="p5baxyPhWxI7ZV6xU-EJ-120" value="Cargos" style="rounded=0;whiteSpace=wrap;html=1;" vertex="1" parent="1">
          <mxGeometry x="1910" y="-175" width="400" height="100" as="geometry" />
        </mxCell>
        <mxCell id="p5baxyPhWxI7ZV6xU-EJ-121" value="Data de início" style="ellipse;whiteSpace=wrap;html=1;" vertex="1" parent="1">
          <mxGeometry x="2847" y="-325" width="93" height="55" as="geometry" />
        </mxCell>
        <mxCell id="p5baxyPhWxI7ZV6xU-EJ-122" value="Título" style="ellipse;whiteSpace=wrap;html=1;" vertex="1" parent="1">
          <mxGeometry x="2740" y="-335" width="95" height="45" as="geometry" />
        </mxCell>
        <mxCell id="p5baxyPhWxI7ZV6xU-EJ-123" value="Requisitos mínimos" style="ellipse;whiteSpace=wrap;html=1;" vertex="1" parent="1">
          <mxGeometry x="2730" y="-110" width="105" height="60" as="geometry" />
        </mxCell>
        <mxCell id="p5baxyPhWxI7ZV6xU-EJ-124" value="Data de término" style="ellipse;whiteSpace=wrap;html=1;" vertex="1" parent="1">
          <mxGeometry x="2975" y="-320" width="105" height="60" as="geometry" />
        </mxCell>
        <mxCell id="p5baxyPhWxI7ZV6xU-EJ-125" value="&lt;font style=&quot;font-size: 14px;&quot;&gt;Código&lt;/font&gt;" style="ellipse;whiteSpace=wrap;html=1;align=center;fontStyle=4;" vertex="1" parent="1">
          <mxGeometry x="2600" y="-350" width="100" height="70" as="geometry" />
        </mxCell>
        <mxCell id="p5baxyPhWxI7ZV6xU-EJ-126" value="&lt;div&gt;Modalidade&lt;/div&gt;" style="ellipse;shape=doubleEllipse;margin=3;whiteSpace=wrap;html=1;align=center;" vertex="1" parent="1">
          <mxGeometry x="2947" y="-175" width="100" height="40" as="geometry" />
        </mxCell>
        <mxCell id="p5baxyPhWxI7ZV6xU-EJ-127" value="Descrição" style="ellipse;shape=doubleEllipse;margin=3;whiteSpace=wrap;html=1;align=center;" vertex="1" parent="1">
          <mxGeometry x="2835" y="-135" width="100" height="40" as="geometry" />
        </mxCell>
        <mxCell id="p5baxyPhWxI7ZV6xU-EJ-128" style="edgeStyle=orthogonalEdgeStyle;rounded=0;orthogonalLoop=1;jettySize=auto;html=1;exitX=0.5;exitY=1;exitDx=0;exitDy=0;" edge="1" parent="1" source="p5baxyPhWxI7ZV6xU-EJ-126" target="p5baxyPhWxI7ZV6xU-EJ-126">
          <mxGeometry relative="1" as="geometry" />
        </mxCell>
        <mxCell id="p5baxyPhWxI7ZV6xU-EJ-129" style="edgeStyle=orthogonalEdgeStyle;rounded=0;orthogonalLoop=1;jettySize=auto;html=1;exitX=0.5;exitY=1;exitDx=0;exitDy=0;" edge="1" parent="1" source="p5baxyPhWxI7ZV6xU-EJ-127" target="p5baxyPhWxI7ZV6xU-EJ-127">
          <mxGeometry relative="1" as="geometry" />
        </mxCell>
        <mxCell id="p5baxyPhWxI7ZV6xU-EJ-130" value="" style="endArrow=none;html=1;rounded=0;exitX=0.5;exitY=1;exitDx=0;exitDy=0;entryX=1;entryY=0.5;entryDx=0;entryDy=0;" edge="1" parent="1" source="p5baxyPhWxI7ZV6xU-EJ-125" target="p5baxyPhWxI7ZV6xU-EJ-120">
          <mxGeometry relative="1" as="geometry">
            <mxPoint x="2527" y="-338.68" as="sourcePoint" />
            <mxPoint x="2687" y="-338.68" as="targetPoint" />
          </mxGeometry>
        </mxCell>
        <mxCell id="p5baxyPhWxI7ZV6xU-EJ-131" value="" style="endArrow=none;html=1;rounded=0;exitX=0.5;exitY=1;exitDx=0;exitDy=0;entryX=1;entryY=0.5;entryDx=0;entryDy=0;" edge="1" parent="1" source="p5baxyPhWxI7ZV6xU-EJ-122" target="p5baxyPhWxI7ZV6xU-EJ-120">
          <mxGeometry relative="1" as="geometry">
            <mxPoint x="2577" y="-390" as="sourcePoint" />
            <mxPoint x="2897" y="-275" as="targetPoint" />
          </mxGeometry>
        </mxCell>
        <mxCell id="p5baxyPhWxI7ZV6xU-EJ-132" value="" style="endArrow=none;html=1;rounded=0;exitX=0.5;exitY=1;exitDx=0;exitDy=0;entryX=1;entryY=0.5;entryDx=0;entryDy=0;" edge="1" parent="1" source="p5baxyPhWxI7ZV6xU-EJ-121" target="p5baxyPhWxI7ZV6xU-EJ-120">
          <mxGeometry relative="1" as="geometry">
            <mxPoint x="2615" y="-405" as="sourcePoint" />
            <mxPoint x="2897" y="-295" as="targetPoint" />
          </mxGeometry>
        </mxCell>
        <mxCell id="p5baxyPhWxI7ZV6xU-EJ-133" value="" style="endArrow=none;html=1;rounded=0;exitX=0.5;exitY=1;exitDx=0;exitDy=0;entryX=1;entryY=0.5;entryDx=0;entryDy=0;" edge="1" parent="1" source="p5baxyPhWxI7ZV6xU-EJ-124" target="p5baxyPhWxI7ZV6xU-EJ-120">
          <mxGeometry relative="1" as="geometry">
            <mxPoint x="2677" y="-445" as="sourcePoint" />
            <mxPoint x="2871" y="-295" as="targetPoint" />
          </mxGeometry>
        </mxCell>
        <mxCell id="p5baxyPhWxI7ZV6xU-EJ-134" value="" style="endArrow=none;html=1;rounded=0;exitX=0;exitY=1;exitDx=0;exitDy=0;entryX=1;entryY=0.5;entryDx=0;entryDy=0;" edge="1" parent="1" source="p5baxyPhWxI7ZV6xU-EJ-119" target="p5baxyPhWxI7ZV6xU-EJ-120">
          <mxGeometry relative="1" as="geometry">
            <mxPoint x="2982" y="-555" as="sourcePoint" />
            <mxPoint x="3040" y="-314" as="targetPoint" />
          </mxGeometry>
        </mxCell>
        <mxCell id="p5baxyPhWxI7ZV6xU-EJ-135" value="" style="endArrow=none;html=1;rounded=0;exitX=0;exitY=1;exitDx=0;exitDy=0;entryX=1;entryY=0.5;entryDx=0;entryDy=0;" edge="1" parent="1" source="p5baxyPhWxI7ZV6xU-EJ-126" target="p5baxyPhWxI7ZV6xU-EJ-120">
          <mxGeometry relative="1" as="geometry">
            <mxPoint x="3117" y="-475" as="sourcePoint" />
            <mxPoint x="3190" y="-160" as="targetPoint" />
          </mxGeometry>
        </mxCell>
        <mxCell id="p5baxyPhWxI7ZV6xU-EJ-136" value="" style="endArrow=none;html=1;rounded=0;exitX=0.041;exitY=0.751;exitDx=0;exitDy=0;exitPerimeter=0;entryX=1;entryY=0.5;entryDx=0;entryDy=0;" edge="1" parent="1" source="p5baxyPhWxI7ZV6xU-EJ-127" target="p5baxyPhWxI7ZV6xU-EJ-120">
          <mxGeometry relative="1" as="geometry">
            <mxPoint x="3206" y="-438.5" as="sourcePoint" />
            <mxPoint x="2887" y="-305" as="targetPoint" />
          </mxGeometry>
        </mxCell>
        <mxCell id="p5baxyPhWxI7ZV6xU-EJ-137" value="" style="endArrow=none;html=1;rounded=0;exitX=0.055;exitY=0.719;exitDx=0;exitDy=0;exitPerimeter=0;entryX=1;entryY=0.5;entryDx=0;entryDy=0;" edge="1" parent="1" source="p5baxyPhWxI7ZV6xU-EJ-123" target="p5baxyPhWxI7ZV6xU-EJ-120">
          <mxGeometry relative="1" as="geometry">
            <mxPoint x="3201" y="-355" as="sourcePoint" />
            <mxPoint x="2887" y="-305" as="targetPoint" />
          </mxGeometry>
        </mxCell>
        <mxCell id="p5baxyPhWxI7ZV6xU-EJ-138" value="Endereço" style="ellipse;whiteSpace=wrap;html=1;align=center;dashed=1;" vertex="1" parent="1">
          <mxGeometry x="2600" y="-60" width="100" height="40" as="geometry" />
        </mxCell>
        <mxCell id="p5baxyPhWxI7ZV6xU-EJ-139" value="" style="endArrow=none;html=1;rounded=0;entryX=0;entryY=0.5;entryDx=0;entryDy=0;exitX=1;exitY=0.5;exitDx=0;exitDy=0;" edge="1" parent="1" source="p5baxyPhWxI7ZV6xU-EJ-120" target="p5baxyPhWxI7ZV6xU-EJ-138">
          <mxGeometry relative="1" as="geometry">
            <mxPoint x="3107" y="-325" as="sourcePoint" />
            <mxPoint x="3267" y="-325" as="targetPoint" />
          </mxGeometry>
        </mxCell>
        <mxCell id="p5baxyPhWxI7ZV6xU-EJ-140" style="edgeStyle=orthogonalEdgeStyle;rounded=0;orthogonalLoop=1;jettySize=auto;html=1;exitX=0.5;exitY=1;exitDx=0;exitDy=0;" edge="1" parent="1" source="p5baxyPhWxI7ZV6xU-EJ-138" target="p5baxyPhWxI7ZV6xU-EJ-138">
          <mxGeometry relative="1" as="geometry" />
        </mxCell>
        <mxCell id="p5baxyPhWxI7ZV6xU-EJ-141" style="edgeStyle=orthogonalEdgeStyle;rounded=0;orthogonalLoop=1;jettySize=auto;html=1;exitX=0.5;exitY=1;exitDx=0;exitDy=0;" edge="1" parent="1" source="p5baxyPhWxI7ZV6xU-EJ-4" target="p5baxyPhWxI7ZV6xU-EJ-4">
          <mxGeometry relative="1" as="geometry" />
        </mxCell>
        <mxCell id="p5baxyPhWxI7ZV6xU-EJ-142" value="" style="endArrow=none;html=1;rounded=0;exitX=0.5;exitY=0;exitDx=0;exitDy=0;" edge="1" parent="1" source="p5baxyPhWxI7ZV6xU-EJ-5" target="p5baxyPhWxI7ZV6xU-EJ-2">
          <mxGeometry width="50" height="50" relative="1" as="geometry">
            <mxPoint x="2270" y="580" as="sourcePoint" />
            <mxPoint x="2320" y="530" as="targetPoint" />
          </mxGeometry>
        </mxCell>
        <mxCell id="p5baxyPhWxI7ZV6xU-EJ-143" value="" style="rhombus;whiteSpace=wrap;html=1;" vertex="1" parent="1">
          <mxGeometry x="1915" y="-567.5" width="390" height="130" as="geometry" />
        </mxCell>
        <mxCell id="p5baxyPhWxI7ZV6xU-EJ-144" value="" style="endArrow=none;html=1;rounded=0;exitX=1;exitY=0.5;exitDx=0;exitDy=0;entryX=0;entryY=0.5;entryDx=0;entryDy=0;" edge="1" parent="1" source="p5baxyPhWxI7ZV6xU-EJ-82" target="p5baxyPhWxI7ZV6xU-EJ-143">
          <mxGeometry width="50" height="50" relative="1" as="geometry">
            <mxPoint x="1990" y="360" as="sourcePoint" />
            <mxPoint x="1400" y="80" as="targetPoint" />
            <Array as="points">
              <mxPoint x="1830" y="-320" />
              <mxPoint x="1925" y="-320" />
            </Array>
          </mxGeometry>
        </mxCell>
        <mxCell id="p5baxyPhWxI7ZV6xU-EJ-146" value="aprova" style="text;html=1;align=center;verticalAlign=middle;whiteSpace=wrap;rounded=0;" vertex="1" parent="1">
          <mxGeometry x="2090" y="-512.5" width="60" height="30" as="geometry" />
        </mxCell>
        <mxCell id="p5baxyPhWxI7ZV6xU-EJ-147" value="" style="endArrow=none;html=1;rounded=0;exitX=0.5;exitY=0;exitDx=0;exitDy=0;entryX=0;entryY=0.5;entryDx=0;entryDy=0;" edge="1" parent="1" source="p5baxyPhWxI7ZV6xU-EJ-2" target="p5baxyPhWxI7ZV6xU-EJ-167">
          <mxGeometry width="50" height="50" relative="1" as="geometry">
            <mxPoint x="2300" y="160" as="sourcePoint" />
            <mxPoint x="2070" y="30" as="targetPoint" />
            <Array as="points">
              <mxPoint x="2120" y="40" />
            </Array>
          </mxGeometry>
        </mxCell>
        <mxCell id="p5baxyPhWxI7ZV6xU-EJ-148" value="" style="endArrow=none;html=1;rounded=0;exitX=0.5;exitY=0;exitDx=0;exitDy=0;entryX=0.5;entryY=1;entryDx=0;entryDy=0;" edge="1" parent="1" source="p5baxyPhWxI7ZV6xU-EJ-143" target="p5baxyPhWxI7ZV6xU-EJ-40">
          <mxGeometry width="50" height="50" relative="1" as="geometry">
            <mxPoint x="2300" y="-290" as="sourcePoint" />
            <mxPoint x="2350" y="-340" as="targetPoint" />
          </mxGeometry>
        </mxCell>
        <mxCell id="p5baxyPhWxI7ZV6xU-EJ-149" value="" style="rhombus;whiteSpace=wrap;html=1;" vertex="1" parent="1">
          <mxGeometry x="2727" y="110" width="390" height="130" as="geometry" />
        </mxCell>
        <mxCell id="p5baxyPhWxI7ZV6xU-EJ-150" value="" style="endArrow=none;html=1;rounded=0;exitX=0.5;exitY=0;exitDx=0;exitDy=0;entryX=0.5;entryY=1;entryDx=0;entryDy=0;" edge="1" parent="1" source="p5baxyPhWxI7ZV6xU-EJ-149" target="p5baxyPhWxI7ZV6xU-EJ-120">
          <mxGeometry width="50" height="50" relative="1" as="geometry">
            <mxPoint x="2890" y="-70" as="sourcePoint" />
            <mxPoint x="2940" y="-120" as="targetPoint" />
          </mxGeometry>
        </mxCell>
        <mxCell id="p5baxyPhWxI7ZV6xU-EJ-151" value="" style="endArrow=none;html=1;rounded=0;exitX=1;exitY=0.5;exitDx=0;exitDy=0;entryX=0;entryY=0.5;entryDx=0;entryDy=0;" edge="1" parent="1" source="p5baxyPhWxI7ZV6xU-EJ-2" target="p5baxyPhWxI7ZV6xU-EJ-149">
          <mxGeometry width="50" height="50" relative="1" as="geometry">
            <mxPoint x="3080" y="-20" as="sourcePoint" />
            <mxPoint x="3130" y="-70" as="targetPoint" />
          </mxGeometry>
        </mxCell>
        <mxCell id="p5baxyPhWxI7ZV6xU-EJ-152" value="disponibiliza" style="text;html=1;align=center;verticalAlign=middle;whiteSpace=wrap;rounded=0;" vertex="1" parent="1">
          <mxGeometry x="2887" y="165" width="60" height="30" as="geometry" />
        </mxCell>
        <mxCell id="p5baxyPhWxI7ZV6xU-EJ-153" value="" style="endArrow=none;html=1;rounded=0;exitX=0.5;exitY=0;exitDx=0;exitDy=0;entryX=0.5;entryY=1;entryDx=0;entryDy=0;" edge="1" parent="1" source="p5baxyPhWxI7ZV6xU-EJ-120" target="p5baxyPhWxI7ZV6xU-EJ-154">
          <mxGeometry width="50" height="50" relative="1" as="geometry">
            <mxPoint x="2770" y="-520" as="sourcePoint" />
            <mxPoint x="2560" y="-460" as="targetPoint" />
          </mxGeometry>
        </mxCell>
        <mxCell id="p5baxyPhWxI7ZV6xU-EJ-154" value="" style="rhombus;whiteSpace=wrap;html=1;" vertex="1" parent="1">
          <mxGeometry x="2730" y="-622.5" width="390" height="130" as="geometry" />
        </mxCell>
        <mxCell id="p5baxyPhWxI7ZV6xU-EJ-155" value="" style="endArrow=none;html=1;rounded=0;exitX=0;exitY=0.5;exitDx=0;exitDy=0;entryX=0.939;entryY=1.031;entryDx=0;entryDy=0;entryPerimeter=0;" edge="1" parent="1" source="p5baxyPhWxI7ZV6xU-EJ-154" target="p5baxyPhWxI7ZV6xU-EJ-40">
          <mxGeometry width="50" height="50" relative="1" as="geometry">
            <mxPoint x="2770" y="-520" as="sourcePoint" />
            <mxPoint x="2820" y="-570" as="targetPoint" />
            <Array as="points">
              <mxPoint x="2290" y="-557" />
            </Array>
          </mxGeometry>
        </mxCell>
        <mxCell id="p5baxyPhWxI7ZV6xU-EJ-156" value="candidata" style="text;html=1;align=center;verticalAlign=middle;whiteSpace=wrap;rounded=0;" vertex="1" parent="1">
          <mxGeometry x="2887" y="-577.5" width="60" height="40" as="geometry" />
        </mxCell>
        <mxCell id="p5baxyPhWxI7ZV6xU-EJ-157" value="(0, N)" style="text;html=1;align=center;verticalAlign=middle;whiteSpace=wrap;rounded=0;" vertex="1" parent="1">
          <mxGeometry x="1607.5" y="-360" width="60" height="30" as="geometry" />
        </mxCell>
        <mxCell id="p5baxyPhWxI7ZV6xU-EJ-158" value="(0, N)" style="text;html=1;align=center;verticalAlign=middle;whiteSpace=wrap;rounded=0;" vertex="1" parent="1">
          <mxGeometry x="1797.5" y="-150" width="60" height="30" as="geometry" />
        </mxCell>
        <mxCell id="p5baxyPhWxI7ZV6xU-EJ-159" value="(0, N)" style="text;html=1;align=center;verticalAlign=middle;whiteSpace=wrap;rounded=0;" vertex="1" parent="1">
          <mxGeometry x="2049.5" y="10" width="60" height="30" as="geometry" />
        </mxCell>
        <mxCell id="p5baxyPhWxI7ZV6xU-EJ-160" value="(0, N)" style="text;html=1;align=center;verticalAlign=middle;whiteSpace=wrap;rounded=0;" vertex="1" parent="1">
          <mxGeometry x="2130" y="-810" width="60" height="30" as="geometry" />
        </mxCell>
        <mxCell id="p5baxyPhWxI7ZV6xU-EJ-161" value="(0, N)" style="text;html=1;align=center;verticalAlign=middle;whiteSpace=wrap;rounded=0;" vertex="1" parent="1">
          <mxGeometry x="2940" y="-210" width="60" height="30" as="geometry" />
        </mxCell>
        <mxCell id="p5baxyPhWxI7ZV6xU-EJ-162" value="(1, 1)" style="text;html=1;align=center;verticalAlign=middle;whiteSpace=wrap;rounded=0;" vertex="1" parent="1">
          <mxGeometry x="2320" y="150" width="60" height="30" as="geometry" />
        </mxCell>
        <mxCell id="p5baxyPhWxI7ZV6xU-EJ-163" value="(1, N)" style="text;html=1;align=center;verticalAlign=middle;whiteSpace=wrap;rounded=0;" vertex="1" parent="1">
          <mxGeometry x="2250" y="-70" width="60" height="30" as="geometry" />
        </mxCell>
        <mxCell id="p5baxyPhWxI7ZV6xU-EJ-164" value="(0, N)" style="text;html=1;align=center;verticalAlign=middle;whiteSpace=wrap;rounded=0;" vertex="1" parent="1">
          <mxGeometry x="2280" y="-800" width="60" height="30" as="geometry" />
        </mxCell>
        <mxCell id="p5baxyPhWxI7ZV6xU-EJ-249" value="" style="edgeStyle=orthogonalEdgeStyle;rounded=0;orthogonalLoop=1;jettySize=auto;html=1;" edge="1" parent="1" source="p5baxyPhWxI7ZV6xU-EJ-165" target="p5baxyPhWxI7ZV6xU-EJ-120">
          <mxGeometry relative="1" as="geometry">
            <Array as="points">
              <mxPoint x="1880" y="-115" />
              <mxPoint x="1880" y="-115" />
            </Array>
          </mxGeometry>
        </mxCell>
        <mxCell id="p5baxyPhWxI7ZV6xU-EJ-165" value="" style="rhombus;whiteSpace=wrap;html=1;" vertex="1" parent="1">
          <mxGeometry x="1400" y="-180" width="390" height="130" as="geometry" />
        </mxCell>
        <mxCell id="p5baxyPhWxI7ZV6xU-EJ-166" value="aprova" style="text;html=1;align=center;verticalAlign=middle;whiteSpace=wrap;rounded=0;" vertex="1" parent="1">
          <mxGeometry x="1565" y="-130" width="60" height="30" as="geometry" />
        </mxCell>
        <mxCell id="p5baxyPhWxI7ZV6xU-EJ-167" value="" style="rhombus;whiteSpace=wrap;html=1;" vertex="1" parent="1">
          <mxGeometry x="640" y="-20" width="390" height="130" as="geometry" />
        </mxCell>
        <mxCell id="p5baxyPhWxI7ZV6xU-EJ-168" value="aprova" style="text;html=1;align=center;verticalAlign=middle;whiteSpace=wrap;rounded=0;" vertex="1" parent="1">
          <mxGeometry x="805" y="40" width="60" height="30" as="geometry" />
        </mxCell>
        <mxCell id="p5baxyPhWxI7ZV6xU-EJ-169" value="" style="endArrow=none;html=1;rounded=0;exitX=0.5;exitY=0;exitDx=0;exitDy=0;entryX=0;entryY=0.75;entryDx=0;entryDy=0;" edge="1" parent="1" source="p5baxyPhWxI7ZV6xU-EJ-167" target="p5baxyPhWxI7ZV6xU-EJ-82">
          <mxGeometry width="50" height="50" relative="1" as="geometry">
            <mxPoint x="1670" y="-100" as="sourcePoint" />
            <mxPoint x="1720" y="-150" as="targetPoint" />
            <Array as="points">
              <mxPoint x="840" y="-295" />
              <mxPoint x="1030" y="-295" />
            </Array>
          </mxGeometry>
        </mxCell>
        <mxCell id="p5baxyPhWxI7ZV6xU-EJ-170" value="(0, N)" style="text;html=1;align=center;verticalAlign=middle;whiteSpace=wrap;rounded=0;" vertex="1" parent="1">
          <mxGeometry x="1131.5" y="-290" width="60" height="30" as="geometry" />
        </mxCell>
        <mxCell id="p5baxyPhWxI7ZV6xU-EJ-171" value="" style="endArrow=none;html=1;rounded=0;entryX=0;entryY=0.5;entryDx=0;entryDy=0;exitX=0.5;exitY=1;exitDx=0;exitDy=0;" edge="1" parent="1" source="p5baxyPhWxI7ZV6xU-EJ-82" target="p5baxyPhWxI7ZV6xU-EJ-165">
          <mxGeometry width="50" height="50" relative="1" as="geometry">
            <mxPoint x="1880" y="-40" as="sourcePoint" />
            <mxPoint x="1930" y="-90" as="targetPoint" />
            <Array as="points">
              <mxPoint x="1400" y="-120" />
            </Array>
          </mxGeometry>
        </mxCell>
        <mxCell id="p5baxyPhWxI7ZV6xU-EJ-172" value="(0, N)" style="text;html=1;align=center;verticalAlign=middle;whiteSpace=wrap;rounded=0;" vertex="1" parent="1">
          <mxGeometry x="1400" y="-270" width="60" height="30" as="geometry" />
        </mxCell>
        <mxCell id="p5baxyPhWxI7ZV6xU-EJ-176" value="" style="edgeStyle=orthogonalEdgeStyle;rounded=0;orthogonalLoop=1;jettySize=auto;html=1;" edge="1" parent="1" source="p5baxyPhWxI7ZV6xU-EJ-173" target="p5baxyPhWxI7ZV6xU-EJ-175">
          <mxGeometry relative="1" as="geometry" />
        </mxCell>
        <mxCell id="p5baxyPhWxI7ZV6xU-EJ-173" value="organiza" style="rhombus;whiteSpace=wrap;html=1;rounded=0;" vertex="1" parent="1">
          <mxGeometry x="1510" y="140" width="170" height="80" as="geometry" />
        </mxCell>
        <mxCell id="p5baxyPhWxI7ZV6xU-EJ-198" style="edgeStyle=orthogonalEdgeStyle;rounded=0;orthogonalLoop=1;jettySize=auto;html=1;entryX=0.5;entryY=1;entryDx=0;entryDy=0;" edge="1" parent="1" source="p5baxyPhWxI7ZV6xU-EJ-175" target="p5baxyPhWxI7ZV6xU-EJ-196">
          <mxGeometry relative="1" as="geometry" />
        </mxCell>
        <mxCell id="p5baxyPhWxI7ZV6xU-EJ-206" style="edgeStyle=orthogonalEdgeStyle;rounded=0;orthogonalLoop=1;jettySize=auto;html=1;" edge="1" parent="1" target="p5baxyPhWxI7ZV6xU-EJ-208">
          <mxGeometry relative="1" as="geometry">
            <mxPoint x="620" y="-850" as="targetPoint" />
            <mxPoint x="515" y="175.00000000000045" as="sourcePoint" />
            <Array as="points">
              <mxPoint x="20" y="175" />
              <mxPoint x="20" y="-1170" />
              <mxPoint x="620" y="-1170" />
            </Array>
          </mxGeometry>
        </mxCell>
        <mxCell id="p5baxyPhWxI7ZV6xU-EJ-214" value="(0, N)" style="edgeLabel;html=1;align=center;verticalAlign=middle;resizable=0;points=[];" vertex="1" connectable="0" parent="p5baxyPhWxI7ZV6xU-EJ-206">
          <mxGeometry x="-0.1876" y="-3" relative="1" as="geometry">
            <mxPoint x="1482" y="-499" as="offset" />
          </mxGeometry>
        </mxCell>
        <mxCell id="p5baxyPhWxI7ZV6xU-EJ-175" value="Evento" style="whiteSpace=wrap;html=1;rounded=0;" vertex="1" parent="1">
          <mxGeometry x="211" y="130" width="305" height="100" as="geometry" />
        </mxCell>
        <mxCell id="p5baxyPhWxI7ZV6xU-EJ-192" value="Nome" style="ellipse;whiteSpace=wrap;html=1;align=center;" vertex="1" parent="1">
          <mxGeometry x="190" y="-85" width="100" height="40" as="geometry" />
        </mxCell>
        <mxCell id="p5baxyPhWxI7ZV6xU-EJ-193" value="Data" style="ellipse;whiteSpace=wrap;html=1;align=center;" vertex="1" parent="1">
          <mxGeometry x="440" y="-85" width="100" height="40" as="geometry" />
        </mxCell>
        <mxCell id="p5baxyPhWxI7ZV6xU-EJ-194" value="Descrição" style="ellipse;whiteSpace=wrap;html=1;align=center;" vertex="1" parent="1">
          <mxGeometry x="100" y="-40" width="100" height="40" as="geometry" />
        </mxCell>
        <mxCell id="p5baxyPhWxI7ZV6xU-EJ-195" value="Local" style="ellipse;whiteSpace=wrap;html=1;align=center;" vertex="1" parent="1">
          <mxGeometry x="515" y="-40" width="100" height="40" as="geometry" />
        </mxCell>
        <mxCell id="p5baxyPhWxI7ZV6xU-EJ-196" value="Codigo" style="ellipse;whiteSpace=wrap;html=1;align=center;fontStyle=4;" vertex="1" parent="1">
          <mxGeometry x="313.5" y="-100" width="100" height="40" as="geometry" />
        </mxCell>
        <mxCell id="p5baxyPhWxI7ZV6xU-EJ-197" value="Tipo" style="ellipse;whiteSpace=wrap;html=1;align=center;" vertex="1" parent="1">
          <mxGeometry x="30" y="10" width="100" height="40" as="geometry" />
        </mxCell>
        <mxCell id="p5baxyPhWxI7ZV6xU-EJ-200" style="rounded=0;orthogonalLoop=1;jettySize=auto;html=1;endArrow=none;startFill=0;" edge="1" parent="1" source="p5baxyPhWxI7ZV6xU-EJ-192">
          <mxGeometry relative="1" as="geometry">
            <mxPoint x="290.00126592406156" y="-44.50446996240926" as="sourcePoint" />
            <mxPoint x="360" y="130" as="targetPoint" />
          </mxGeometry>
        </mxCell>
        <mxCell id="p5baxyPhWxI7ZV6xU-EJ-201" style="rounded=0;orthogonalLoop=1;jettySize=auto;html=1;endArrow=none;startFill=0;" edge="1" parent="1" source="p5baxyPhWxI7ZV6xU-EJ-194">
          <mxGeometry relative="1" as="geometry">
            <mxPoint x="360" y="130" as="targetPoint" />
          </mxGeometry>
        </mxCell>
        <mxCell id="p5baxyPhWxI7ZV6xU-EJ-202" style="rounded=0;orthogonalLoop=1;jettySize=auto;html=1;endArrow=none;startFill=0;" edge="1" parent="1" source="p5baxyPhWxI7ZV6xU-EJ-197">
          <mxGeometry relative="1" as="geometry">
            <mxPoint x="360" y="130" as="targetPoint" />
          </mxGeometry>
        </mxCell>
        <mxCell id="p5baxyPhWxI7ZV6xU-EJ-203" style="rounded=0;orthogonalLoop=1;jettySize=auto;html=1;entryX=0.473;entryY=0.006;entryDx=0;entryDy=0;endArrow=none;startFill=0;entryPerimeter=0;" edge="1" parent="1" source="p5baxyPhWxI7ZV6xU-EJ-193" target="p5baxyPhWxI7ZV6xU-EJ-175">
          <mxGeometry relative="1" as="geometry">
            <Array as="points">
              <mxPoint x="363" y="130" />
            </Array>
          </mxGeometry>
        </mxCell>
        <mxCell id="p5baxyPhWxI7ZV6xU-EJ-204" style="rounded=0;orthogonalLoop=1;jettySize=auto;html=1;endArrow=none;startFill=0;entryX=0.5;entryY=0;entryDx=0;entryDy=0;" edge="1" parent="1" source="p5baxyPhWxI7ZV6xU-EJ-195" target="p5baxyPhWxI7ZV6xU-EJ-175">
          <mxGeometry relative="1" as="geometry">
            <mxPoint x="570" y="60" as="targetPoint" />
          </mxGeometry>
        </mxCell>
        <mxCell id="p5baxyPhWxI7ZV6xU-EJ-209" style="edgeStyle=orthogonalEdgeStyle;rounded=0;orthogonalLoop=1;jettySize=auto;html=1;" edge="1" parent="1" source="p5baxyPhWxI7ZV6xU-EJ-208">
          <mxGeometry relative="1" as="geometry">
            <mxPoint x="1910" y="-850" as="targetPoint" />
            <Array as="points">
              <mxPoint x="1590" y="-890" />
              <mxPoint x="1910" y="-890" />
            </Array>
          </mxGeometry>
        </mxCell>
        <mxCell id="p5baxyPhWxI7ZV6xU-EJ-215" value="(0, N)" style="edgeLabel;html=1;align=center;verticalAlign=middle;resizable=0;points=[];" vertex="1" connectable="0" parent="p5baxyPhWxI7ZV6xU-EJ-209">
          <mxGeometry x="0.7183" relative="1" as="geometry">
            <mxPoint x="11" y="-10" as="offset" />
          </mxGeometry>
        </mxCell>
        <mxCell id="p5baxyPhWxI7ZV6xU-EJ-208" value="participa" style="shape=rhombus;perimeter=rhombusPerimeter;whiteSpace=wrap;html=1;align=center;" vertex="1" parent="1">
          <mxGeometry x="1530" y="-1200" width="120" height="60" as="geometry" />
        </mxCell>
        <mxCell id="p5baxyPhWxI7ZV6xU-EJ-212" value="(0, N)" style="text;html=1;align=center;verticalAlign=middle;resizable=0;points=[];autosize=1;strokeColor=none;fillColor=none;" vertex="1" parent="1">
          <mxGeometry x="1850" y="155" width="50" height="30" as="geometry" />
        </mxCell>
        <mxCell id="p5baxyPhWxI7ZV6xU-EJ-213" value="(0, N)" style="text;html=1;align=center;verticalAlign=middle;resizable=0;points=[];autosize=1;strokeColor=none;fillColor=none;" vertex="1" parent="1">
          <mxGeometry x="660" y="150" width="50" height="30" as="geometry" />
        </mxCell>
        <mxCell id="p5baxyPhWxI7ZV6xU-EJ-220" value="" style="edgeStyle=orthogonalEdgeStyle;rounded=0;orthogonalLoop=1;jettySize=auto;html=1;" edge="1" parent="1" source="p5baxyPhWxI7ZV6xU-EJ-218" target="p5baxyPhWxI7ZV6xU-EJ-219">
          <mxGeometry relative="1" as="geometry" />
        </mxCell>
        <mxCell id="p5baxyPhWxI7ZV6xU-EJ-268" value="(0, N)_" style="edgeLabel;html=1;align=center;verticalAlign=middle;resizable=0;points=[];" vertex="1" connectable="0" parent="p5baxyPhWxI7ZV6xU-EJ-220">
          <mxGeometry x="0.6325" y="3" relative="1" as="geometry">
            <mxPoint x="43" y="-7" as="offset" />
          </mxGeometry>
        </mxCell>
        <mxCell id="p5baxyPhWxI7ZV6xU-EJ-218" value="realiza" style="shape=rhombus;perimeter=rhombusPerimeter;whiteSpace=wrap;html=1;align=center;" vertex="1" parent="1">
          <mxGeometry x="2960" y="-890" width="120" height="60" as="geometry" />
        </mxCell>
        <mxCell id="p5baxyPhWxI7ZV6xU-EJ-235" value="" style="edgeStyle=orthogonalEdgeStyle;rounded=0;orthogonalLoop=1;jettySize=auto;html=1;" edge="1" parent="1" source="p5baxyPhWxI7ZV6xU-EJ-219" target="p5baxyPhWxI7ZV6xU-EJ-234">
          <mxGeometry relative="1" as="geometry" />
        </mxCell>
        <mxCell id="p5baxyPhWxI7ZV6xU-EJ-219" value="Doação" style="whiteSpace=wrap;html=1;" vertex="1" parent="1">
          <mxGeometry x="3910" y="-890" width="230" height="90" as="geometry" />
        </mxCell>
        <mxCell id="p5baxyPhWxI7ZV6xU-EJ-222" value="Codigo" style="ellipse;whiteSpace=wrap;html=1;align=center;fontStyle=4;" vertex="1" parent="1">
          <mxGeometry x="3920" y="-1095" width="100" height="40" as="geometry" />
        </mxCell>
        <mxCell id="p5baxyPhWxI7ZV6xU-EJ-223" value="Tipo" style="ellipse;whiteSpace=wrap;html=1;align=center;" vertex="1" parent="1">
          <mxGeometry x="3800" y="-1070" width="100" height="40" as="geometry" />
        </mxCell>
        <mxCell id="p5baxyPhWxI7ZV6xU-EJ-224" value="Data" style="ellipse;whiteSpace=wrap;html=1;align=center;" vertex="1" parent="1">
          <mxGeometry x="4040" y="-1070" width="100" height="40" as="geometry" />
        </mxCell>
        <mxCell id="p5baxyPhWxI7ZV6xU-EJ-227" style="rounded=0;orthogonalLoop=1;jettySize=auto;html=1;endArrow=none;startFill=0;" edge="1" parent="1" source="p5baxyPhWxI7ZV6xU-EJ-225">
          <mxGeometry relative="1" as="geometry">
            <mxPoint x="4030" y="-890" as="targetPoint" />
            <Array as="points" />
          </mxGeometry>
        </mxCell>
        <mxCell id="p5baxyPhWxI7ZV6xU-EJ-225" value="Valor" style="ellipse;whiteSpace=wrap;html=1;align=center;" vertex="1" parent="1">
          <mxGeometry x="3710" y="-1030" width="100" height="40" as="geometry" />
        </mxCell>
        <mxCell id="p5baxyPhWxI7ZV6xU-EJ-228" style="rounded=0;orthogonalLoop=1;jettySize=auto;html=1;endArrow=none;startFill=0;entryX=0.5;entryY=0;entryDx=0;entryDy=0;" edge="1" parent="1" source="p5baxyPhWxI7ZV6xU-EJ-223" target="p5baxyPhWxI7ZV6xU-EJ-219">
          <mxGeometry relative="1" as="geometry">
            <mxPoint x="3970" y="-890" as="targetPoint" />
          </mxGeometry>
        </mxCell>
        <mxCell id="p5baxyPhWxI7ZV6xU-EJ-229" style="rounded=0;orthogonalLoop=1;jettySize=auto;html=1;entryX=0.5;entryY=0;entryDx=0;entryDy=0;endArrow=none;startFill=0;" edge="1" parent="1" source="p5baxyPhWxI7ZV6xU-EJ-222" target="p5baxyPhWxI7ZV6xU-EJ-219">
          <mxGeometry relative="1" as="geometry" />
        </mxCell>
        <mxCell id="p5baxyPhWxI7ZV6xU-EJ-230" style="rounded=0;orthogonalLoop=1;jettySize=auto;html=1;entryX=0.5;entryY=0;entryDx=0;entryDy=0;endArrow=none;startFill=0;" edge="1" parent="1" source="p5baxyPhWxI7ZV6xU-EJ-224" target="p5baxyPhWxI7ZV6xU-EJ-219">
          <mxGeometry relative="1" as="geometry" />
        </mxCell>
        <mxCell id="p5baxyPhWxI7ZV6xU-EJ-232" style="rounded=0;orthogonalLoop=1;jettySize=auto;html=1;entryX=0.5;entryY=0;entryDx=0;entryDy=0;endArrow=none;startFill=0;" edge="1" parent="1" source="p5baxyPhWxI7ZV6xU-EJ-231" target="p5baxyPhWxI7ZV6xU-EJ-219">
          <mxGeometry relative="1" as="geometry" />
        </mxCell>
        <mxCell id="p5baxyPhWxI7ZV6xU-EJ-231" value="Destinatario&amp;nbsp;" style="ellipse;whiteSpace=wrap;html=1;align=center;" vertex="1" parent="1">
          <mxGeometry x="4135" y="-1030" width="100" height="40" as="geometry" />
        </mxCell>
        <mxCell id="p5baxyPhWxI7ZV6xU-EJ-240" style="edgeStyle=orthogonalEdgeStyle;rounded=0;orthogonalLoop=1;jettySize=auto;html=1;entryX=0.89;entryY=1.008;entryDx=0;entryDy=0;entryPerimeter=0;exitX=0.5;exitY=1;exitDx=0;exitDy=0;" edge="1" parent="1" target="p5baxyPhWxI7ZV6xU-EJ-2">
          <mxGeometry relative="1" as="geometry">
            <mxPoint x="3975" y="230" as="sourcePoint" />
            <mxPoint x="2300.6000000000004" y="241.79999999999973" as="targetPoint" />
            <Array as="points">
              <mxPoint x="3975" y="340" />
              <mxPoint x="2276" y="340" />
            </Array>
          </mxGeometry>
        </mxCell>
        <mxCell id="p5baxyPhWxI7ZV6xU-EJ-234" value="recebe" style="rhombus;whiteSpace=wrap;html=1;" vertex="1" parent="1">
          <mxGeometry x="3865" y="140" width="210" height="80" as="geometry" />
        </mxCell>
        <mxCell id="p5baxyPhWxI7ZV6xU-EJ-241" value="(0, N)" style="text;html=1;align=center;verticalAlign=middle;resizable=0;points=[];autosize=1;strokeColor=none;fillColor=none;" vertex="1" parent="1">
          <mxGeometry x="4040" y="-790" width="50" height="30" as="geometry" />
        </mxCell>
        <mxCell id="p5baxyPhWxI7ZV6xU-EJ-242" value="(1, N)" style="text;html=1;align=center;verticalAlign=middle;resizable=0;points=[];autosize=1;strokeColor=none;fillColor=none;" vertex="1" parent="1">
          <mxGeometry x="2230" y="240" width="50" height="30" as="geometry" />
        </mxCell>
        <mxCell id="p5baxyPhWxI7ZV6xU-EJ-247" style="edgeStyle=orthogonalEdgeStyle;rounded=0;orthogonalLoop=1;jettySize=auto;html=1;exitX=0.5;exitY=0;exitDx=0;exitDy=0;entryX=0;entryY=0;entryDx=0;entryDy=0;" edge="1" parent="1" source="p5baxyPhWxI7ZV6xU-EJ-126" target="p5baxyPhWxI7ZV6xU-EJ-126">
          <mxGeometry relative="1" as="geometry" />
        </mxCell>
        <mxCell id="p5baxyPhWxI7ZV6xU-EJ-265" value="" style="edgeStyle=orthogonalEdgeStyle;rounded=0;orthogonalLoop=1;jettySize=auto;html=1;" edge="1" parent="1" source="p5baxyPhWxI7ZV6xU-EJ-250" target="p5baxyPhWxI7ZV6xU-EJ-264">
          <mxGeometry relative="1" as="geometry" />
        </mxCell>
        <mxCell id="p5baxyPhWxI7ZV6xU-EJ-269" value="(1, N)" style="edgeLabel;html=1;align=center;verticalAlign=middle;resizable=0;points=[];" vertex="1" connectable="0" parent="p5baxyPhWxI7ZV6xU-EJ-265">
          <mxGeometry x="-0.682" relative="1" as="geometry">
            <mxPoint x="64" y="-10" as="offset" />
          </mxGeometry>
        </mxCell>
        <mxCell id="p5baxyPhWxI7ZV6xU-EJ-271" value="" style="edgeStyle=orthogonalEdgeStyle;rounded=0;orthogonalLoop=1;jettySize=auto;html=1;" edge="1" parent="1" source="p5baxyPhWxI7ZV6xU-EJ-250" target="p5baxyPhWxI7ZV6xU-EJ-270">
          <mxGeometry relative="1" as="geometry" />
        </mxCell>
        <mxCell id="p5baxyPhWxI7ZV6xU-EJ-250" value="Avaliação" style="rounded=0;whiteSpace=wrap;html=1;" vertex="1" parent="1">
          <mxGeometry x="3480" y="-180" width="170" height="110" as="geometry" />
        </mxCell>
        <mxCell id="p5baxyPhWxI7ZV6xU-EJ-255" style="rounded=0;orthogonalLoop=1;jettySize=auto;html=1;entryX=0.5;entryY=0;entryDx=0;entryDy=0;endArrow=none;startFill=0;" edge="1" parent="1" source="p5baxyPhWxI7ZV6xU-EJ-251" target="p5baxyPhWxI7ZV6xU-EJ-250">
          <mxGeometry relative="1" as="geometry" />
        </mxCell>
        <mxCell id="p5baxyPhWxI7ZV6xU-EJ-251" value="Codigo" style="ellipse;whiteSpace=wrap;html=1;align=center;fontStyle=4;" vertex="1" parent="1">
          <mxGeometry x="3490" y="-400" width="100" height="40" as="geometry" />
        </mxCell>
        <mxCell id="p5baxyPhWxI7ZV6xU-EJ-256" style="rounded=0;orthogonalLoop=1;jettySize=auto;html=1;endArrow=none;startFill=0;" edge="1" parent="1" source="p5baxyPhWxI7ZV6xU-EJ-252">
          <mxGeometry relative="1" as="geometry">
            <mxPoint x="3570" y="-180" as="targetPoint" />
          </mxGeometry>
        </mxCell>
        <mxCell id="p5baxyPhWxI7ZV6xU-EJ-252" value="Nota" style="ellipse;whiteSpace=wrap;html=1;align=center;" vertex="1" parent="1">
          <mxGeometry x="3370" y="-350" width="100" height="40" as="geometry" />
        </mxCell>
        <mxCell id="p5baxyPhWxI7ZV6xU-EJ-257" style="rounded=0;orthogonalLoop=1;jettySize=auto;html=1;entryX=0.5;entryY=0;entryDx=0;entryDy=0;endArrow=none;startFill=0;" edge="1" parent="1" source="p5baxyPhWxI7ZV6xU-EJ-253" target="p5baxyPhWxI7ZV6xU-EJ-250">
          <mxGeometry relative="1" as="geometry" />
        </mxCell>
        <mxCell id="p5baxyPhWxI7ZV6xU-EJ-253" value="Comentario&amp;nbsp;" style="ellipse;whiteSpace=wrap;html=1;align=center;" vertex="1" parent="1">
          <mxGeometry x="3622" y="-355" width="100" height="40" as="geometry" />
        </mxCell>
        <mxCell id="p5baxyPhWxI7ZV6xU-EJ-258" style="rounded=0;orthogonalLoop=1;jettySize=auto;html=1;endArrow=none;startFill=0;" edge="1" parent="1" source="p5baxyPhWxI7ZV6xU-EJ-254">
          <mxGeometry relative="1" as="geometry">
            <mxPoint x="3570" y="-180" as="targetPoint" />
          </mxGeometry>
        </mxCell>
        <mxCell id="p5baxyPhWxI7ZV6xU-EJ-254" value="Data" style="ellipse;whiteSpace=wrap;html=1;align=center;" vertex="1" parent="1">
          <mxGeometry x="3740" y="-310" width="100" height="40" as="geometry" />
        </mxCell>
        <mxCell id="p5baxyPhWxI7ZV6xU-EJ-266" style="edgeStyle=orthogonalEdgeStyle;rounded=0;orthogonalLoop=1;jettySize=auto;html=1;entryX=1;entryY=0.75;entryDx=0;entryDy=0;" edge="1" parent="1" source="p5baxyPhWxI7ZV6xU-EJ-264" target="p5baxyPhWxI7ZV6xU-EJ-40">
          <mxGeometry relative="1" as="geometry">
            <mxPoint x="3130" y="-647.5000000000005" as="targetPoint" />
          </mxGeometry>
        </mxCell>
        <mxCell id="p5baxyPhWxI7ZV6xU-EJ-267" value="(1, N)" style="edgeLabel;html=1;align=center;verticalAlign=middle;resizable=0;points=[];" vertex="1" connectable="0" parent="p5baxyPhWxI7ZV6xU-EJ-266">
          <mxGeometry x="0.8329" y="3" relative="1" as="geometry">
            <mxPoint x="-35" y="-18" as="offset" />
          </mxGeometry>
        </mxCell>
        <mxCell id="p5baxyPhWxI7ZV6xU-EJ-264" value="faz" style="rhombus;whiteSpace=wrap;html=1;rounded=0;" vertex="1" parent="1">
          <mxGeometry x="3200" y="-687.5" width="170" height="80" as="geometry" />
        </mxCell>
        <mxCell id="p5baxyPhWxI7ZV6xU-EJ-270" value="recebe" style="rhombus;whiteSpace=wrap;html=1;rounded=0;" vertex="1" parent="1">
          <mxGeometry x="3465" y="200" width="150" height="80" as="geometry" />
        </mxCell>
        <mxCell id="p5baxyPhWxI7ZV6xU-EJ-273" style="edgeStyle=orthogonalEdgeStyle;rounded=0;orthogonalLoop=1;jettySize=auto;html=1;entryX=0.975;entryY=1;entryDx=0;entryDy=0;entryPerimeter=0;" edge="1" parent="1" source="p5baxyPhWxI7ZV6xU-EJ-270" target="p5baxyPhWxI7ZV6xU-EJ-2">
          <mxGeometry relative="1" as="geometry">
            <Array as="points">
              <mxPoint x="3540" y="300" />
              <mxPoint x="2310" y="300" />
            </Array>
          </mxGeometry>
        </mxCell>
        <mxCell id="p5baxyPhWxI7ZV6xU-EJ-277" value="(1, N)" style="edgeLabel;html=1;align=center;verticalAlign=middle;resizable=0;points=[];" vertex="1" connectable="0" parent="p5baxyPhWxI7ZV6xU-EJ-273">
          <mxGeometry x="0.6699" y="-2" relative="1" as="geometry">
            <mxPoint x="-123" y="-43" as="offset" />
          </mxGeometry>
        </mxCell>
        <mxCell id="p5baxyPhWxI7ZV6xU-EJ-276" value="(0, N)" style="text;html=1;align=center;verticalAlign=middle;resizable=0;points=[];autosize=1;strokeColor=none;fillColor=none;" vertex="1" parent="1">
          <mxGeometry x="3565" y="-60" width="50" height="30" as="geometry" />
        </mxCell>
        <mxCell id="p5baxyPhWxI7ZV6xU-EJ-293" value="" style="edgeStyle=orthogonalEdgeStyle;rounded=0;orthogonalLoop=1;jettySize=auto;html=1;" edge="1" parent="1" source="p5baxyPhWxI7ZV6xU-EJ-280" target="p5baxyPhWxI7ZV6xU-EJ-292">
          <mxGeometry relative="1" as="geometry" />
        </mxCell>
        <mxCell id="p5baxyPhWxI7ZV6xU-EJ-295" value="(0, N)" style="edgeLabel;html=1;align=center;verticalAlign=middle;resizable=0;points=[];" vertex="1" connectable="0" parent="p5baxyPhWxI7ZV6xU-EJ-293">
          <mxGeometry x="-0.6574" y="2" relative="1" as="geometry">
            <mxPoint x="28" y="1" as="offset" />
          </mxGeometry>
        </mxCell>
        <mxCell id="p5baxyPhWxI7ZV6xU-EJ-298" value="" style="edgeStyle=orthogonalEdgeStyle;rounded=0;orthogonalLoop=1;jettySize=auto;html=1;" edge="1" parent="1" source="p5baxyPhWxI7ZV6xU-EJ-280" target="p5baxyPhWxI7ZV6xU-EJ-297">
          <mxGeometry relative="1" as="geometry" />
        </mxCell>
        <mxCell id="p5baxyPhWxI7ZV6xU-EJ-280" value="Mensagem" style="whiteSpace=wrap;html=1;align=center;" vertex="1" parent="1">
          <mxGeometry x="440" y="-680" width="220" height="77.5" as="geometry" />
        </mxCell>
        <mxCell id="p5baxyPhWxI7ZV6xU-EJ-281" value="Data" style="ellipse;whiteSpace=wrap;html=1;align=center;" vertex="1" parent="1">
          <mxGeometry x="111" y="-650" width="100" height="40" as="geometry" />
        </mxCell>
        <mxCell id="p5baxyPhWxI7ZV6xU-EJ-288" style="rounded=0;orthogonalLoop=1;jettySize=auto;html=1;endArrow=none;startFill=0;" edge="1" parent="1" source="p5baxyPhWxI7ZV6xU-EJ-282">
          <mxGeometry relative="1" as="geometry">
            <mxPoint x="440" y="-640" as="targetPoint" />
          </mxGeometry>
        </mxCell>
        <mxCell id="p5baxyPhWxI7ZV6xU-EJ-282" value="Codigo" style="ellipse;whiteSpace=wrap;html=1;align=center;fontStyle=4;" vertex="1" parent="1">
          <mxGeometry x="111" y="-710" width="100" height="40" as="geometry" />
        </mxCell>
        <mxCell id="p5baxyPhWxI7ZV6xU-EJ-283" value="Texto" style="ellipse;whiteSpace=wrap;html=1;align=center;" vertex="1" parent="1">
          <mxGeometry x="130" y="-770" width="100" height="40" as="geometry" />
        </mxCell>
        <mxCell id="p5baxyPhWxI7ZV6xU-EJ-284" value="Tipo" style="ellipse;whiteSpace=wrap;html=1;align=center;" vertex="1" parent="1">
          <mxGeometry x="120" y="-587.5" width="100" height="40" as="geometry" />
        </mxCell>
        <mxCell id="p5baxyPhWxI7ZV6xU-EJ-286" style="rounded=0;orthogonalLoop=1;jettySize=auto;html=1;endArrow=none;startFill=0;" edge="1" parent="1" source="p5baxyPhWxI7ZV6xU-EJ-284">
          <mxGeometry relative="1" as="geometry">
            <mxPoint x="440" y="-640" as="targetPoint" />
          </mxGeometry>
        </mxCell>
        <mxCell id="p5baxyPhWxI7ZV6xU-EJ-287" style="rounded=0;orthogonalLoop=1;jettySize=auto;html=1;endArrow=none;startFill=0;" edge="1" parent="1" source="p5baxyPhWxI7ZV6xU-EJ-281">
          <mxGeometry relative="1" as="geometry">
            <mxPoint x="440" y="-640" as="targetPoint" />
          </mxGeometry>
        </mxCell>
        <mxCell id="p5baxyPhWxI7ZV6xU-EJ-289" style="rounded=0;orthogonalLoop=1;jettySize=auto;html=1;endArrow=none;startFill=0;" edge="1" parent="1" source="p5baxyPhWxI7ZV6xU-EJ-283">
          <mxGeometry relative="1" as="geometry">
            <mxPoint x="440" y="-642" as="targetPoint" />
          </mxGeometry>
        </mxCell>
        <mxCell id="p5baxyPhWxI7ZV6xU-EJ-294" style="edgeStyle=orthogonalEdgeStyle;rounded=0;orthogonalLoop=1;jettySize=auto;html=1;" edge="1" parent="1" source="p5baxyPhWxI7ZV6xU-EJ-292" target="p5baxyPhWxI7ZV6xU-EJ-82">
          <mxGeometry relative="1" as="geometry" />
        </mxCell>
        <mxCell id="p5baxyPhWxI7ZV6xU-EJ-296" value="(1, N)&amp;nbsp;" style="edgeLabel;html=1;align=center;verticalAlign=middle;resizable=0;points=[];" vertex="1" connectable="0" parent="p5baxyPhWxI7ZV6xU-EJ-294">
          <mxGeometry x="0.6494" y="-1" relative="1" as="geometry">
            <mxPoint x="68" y="-11" as="offset" />
          </mxGeometry>
        </mxCell>
        <mxCell id="p5baxyPhWxI7ZV6xU-EJ-292" value="recebe" style="rhombus;whiteSpace=wrap;html=1;" vertex="1" parent="1">
          <mxGeometry x="460" y="-405" width="180" height="80" as="geometry" />
        </mxCell>
        <mxCell id="p5baxyPhWxI7ZV6xU-EJ-299" style="edgeStyle=orthogonalEdgeStyle;rounded=0;orthogonalLoop=1;jettySize=auto;html=1;entryX=1;entryY=0.5;entryDx=0;entryDy=0;" edge="1" parent="1" source="p5baxyPhWxI7ZV6xU-EJ-297" target="p5baxyPhWxI7ZV6xU-EJ-297">
          <mxGeometry relative="1" as="geometry">
            <Array as="points">
              <mxPoint x="1910" y="-860" />
              <mxPoint x="1910" y="-860" />
            </Array>
          </mxGeometry>
        </mxCell>
        <mxCell id="p5baxyPhWxI7ZV6xU-EJ-301" value="(1, N)" style="edgeLabel;html=1;align=center;verticalAlign=middle;resizable=0;points=[];" vertex="1" connectable="0" parent="p5baxyPhWxI7ZV6xU-EJ-299">
          <mxGeometry x="0.1493" y="3" relative="1" as="geometry">
            <mxPoint x="156" y="12" as="offset" />
          </mxGeometry>
        </mxCell>
        <mxCell id="p5baxyPhWxI7ZV6xU-EJ-297" value="envia" style="rhombus;whiteSpace=wrap;html=1;" vertex="1" parent="1">
          <mxGeometry x="472" y="-900" width="156" height="80" as="geometry" />
        </mxCell>
        <mxCell id="p5baxyPhWxI7ZV6xU-EJ-300" value="1, N" style="text;html=1;align=center;verticalAlign=middle;resizable=0;points=[];autosize=1;strokeColor=none;fillColor=none;" vertex="1" parent="1">
          <mxGeometry x="545" y="-732" width="50" height="30" as="geometry" />
        </mxCell>
      </root>
    </mxGraphModel>
  </diagram>
</mxfile>
